<svg xmlns="http://www.w3.org/2000/svg" xmlns:xlink="http://www.w3.org/1999/xlink" version="1.2" width="122.74mm" height="297.00mm" viewBox="0 0 69.8461 169.0094">
<style type="text/css">
<![CDATA[
tspan { white-space: pre; }
]]>
</style>
<!-- Page: 1/1 -->
<g transform="translate(38.5939, 8.0718)">
<rect x="0.0000" y="-1.6000" width="0.1770" height="3.2000" ry="0.0000" fill="currentColor"/>
</g>
<g transform="translate(15.4675, 8.0718)">
<rect x="0.0000" y="-1.6000" width="0.1770" height="3.2000" ry="0.0000" fill="currentColor"/>
</g>
<g transform="translate(60.3149, 7.6718)">
<path transform="scale(0.0032, -0.0032)" d="M0 0c0 30 25 55 55 55s55 -25 55 -55s-25 -55 -55 -55s-55 25 -55 55z" fill="currentColor"/>
</g>
<g transform="translate(60.3149, 8.4718)">
<path transform="scale(0.0032, -0.0032)" d="M0 0c0 30 25 55 55 55s55 -25 55 -55s-25 -55 -55 -55s-55 25 -55 55z" fill="currentColor"/>
</g>
<g transform="translate(61.4039, 8.0718)">
<rect x="0.0000" y="-1.6000" width="0.5589" height="3.2000" ry="0.0000" fill="currentColor"/>
</g>
<g transform="translate(60.9475, 8.0718)">
<rect x="0.0000" y="-1.6000" width="0.1770" height="3.2000" ry="0.0000" fill="currentColor"/>
</g>
<g transform="translate(52.4029, 8.0718)">
<rect x="0.0000" y="-1.6000" width="0.1770" height="3.2000" ry="0.0000" fill="currentColor"/>
</g>
<g transform="translate(27.5824, 8.0718)">
<rect x="0.0000" y="-1.6000" width="0.1770" height="3.2000" ry="0.0000" fill="currentColor"/>
</g>
<g transform="translate(2.2762, 9.6718)">
<line stroke-linejoin="round" stroke-linecap="round" stroke-width="0.0931" stroke="currentColor" x1="0.0466" y1="0" x2="65.2470" y2="0"/>
</g>
<g transform="translate(2.2762, 8.8718)">
<line stroke-linejoin="round" stroke-linecap="round" stroke-width="0.0931" stroke="currentColor" x1="0.0466" y1="0" x2="65.2470" y2="0"/>
</g>
<g transform="translate(2.2762, 8.0718)">
<line stroke-linejoin="round" stroke-linecap="round" stroke-width="0.0931" stroke="currentColor" x1="0.0466" y1="0" x2="65.2470" y2="0"/>
</g>
<g transform="translate(2.2762, 7.2718)">
<line stroke-linejoin="round" stroke-linecap="round" stroke-width="0.0931" stroke="currentColor" x1="0.0466" y1="0" x2="65.2470" y2="0"/>
</g>
<g transform="translate(2.2762, 6.4718)">
<line stroke-linejoin="round" stroke-linecap="round" stroke-width="0.0931" stroke="currentColor" x1="0.0466" y1="0" x2="65.2470" y2="0"/>
</g>
<a style="color:inherit;" xlink:href="textedit:///home/omk/Insync/otaviokavakama%40gmail.com/Google%20Drive/WEBSITE/kavotaman.github.io/lilypond_files/37438624f5cb279b4735e40412eaca01.ly:28:6:7">
<g transform="translate(53.5829, 8.0718)">
<path transform="scale(0.0032, -0.0032)" d="M310 63c0 23 -19 40 -40 40c-4 0 -8 -1 -12 -2c-30 -8 -75 -38 -111 -61s-81 -52 -101 -76c-7 -8 -10 -17 -10 -27c0 -23 19 -40 40 -40c4 0 8 1 12 2c30 8 75 38 111 61s81 52 101 76c7 8 10 17 10 27zM256 138c50 0 90 -22 90 -77c0 -18 -5 -37 -10 -55
c-11 -38 -30 -74 -63 -96c-53 -35 -111 -48 -183 -48c-50 0 -90 22 -90 77c0 18 5 37 10 55c11 38 30 74 63 96c53 36 111 48 183 48z" fill="currentColor"/>
</g>
</a>
<a style="color:inherit;" xlink:href="textedit:///home/omk/Insync/otaviokavakama%40gmail.com/Google%20Drive/WEBSITE/kavotaman.github.io/lilypond_files/37438624f5cb279b4735e40412eaca01.ly:25:15:16">
<g transform="translate(45.1929, 8.0718)">
<path transform="scale(0.0032, -0.0032)" d="M212 138c59 0 113 -31 113 -95c0 -71 -52 -120 -99 -148c-34 -21 -73 -33 -113 -33c-59 0 -113 31 -113 95c0 71 53 120 100 148c34 21 72 33 112 33z" fill="currentColor"/>
</g>
</a>
<g transform="translate(46.1730, 8.0718)">
<rect x="-0.0605" y="-2.2475" width="0.1211" height="2.1105" ry="0.0400" fill="currentColor"/>
</g>
<a style="color:inherit;" xlink:href="textedit:///home/omk/Insync/otaviokavakama%40gmail.com/Google%20Drive/WEBSITE/kavotaman.github.io/lilypond_files/37438624f5cb279b4735e40412eaca01.ly:25:17:18">
<g transform="translate(47.0561, 7.6718)">
<path transform="scale(0.0032, -0.0032)" d="M212 138c59 0 113 -31 113 -95c0 -71 -52 -120 -99 -148c-34 -21 -73 -33 -113 -33c-59 0 -113 31 -113 95c0 71 53 120 100 148c34 21 72 33 112 33z" fill="currentColor"/>
</g>
</a>
<g transform="translate(47.1166, 8.0718)">
<rect x="-0.0605" y="-0.2629" width="0.1211" height="2.6629" ry="0.0400" fill="currentColor"/>
</g>
<a style="color:inherit;" xlink:href="textedit:///home/omk/Insync/otaviokavakama%40gmail.com/Google%20Drive/WEBSITE/kavotaman.github.io/lilypond_files/37438624f5cb279b4735e40412eaca01.ly:25:20:21">
<g transform="translate(49.7948, 8.0718)">
<path transform="scale(0.0032, -0.0032)" d="M212 138c59 0 113 -31 113 -95c0 -71 -52 -120 -99 -148c-34 -21 -73 -33 -113 -33c-59 0 -113 31 -113 95c0 71 53 120 100 148c34 21 72 33 112 33z" fill="currentColor"/>
</g>
</a>
<g transform="translate(49.8553, 8.0718)">
<rect x="-0.0605" y="0.1371" width="0.1211" height="2.5296" ry="0.0400" fill="currentColor"/>
</g>
<g transform="translate(11.9525, 9.6718)">
<polygon stroke-linejoin="round" stroke-linecap="round" stroke-width="0.0800" fill="currentColor" stroke="currentColor" points="1.9218 -0.0066 1.9218 0.2974 0.0400 0.1520 0.0400 -0.1520"/>
</g>
<g transform="translate(40.6510, 8.0718)">
<rect x="-0.0605" y="-1.6070" width="0.1211" height="2.6700" ry="0.0400" fill="currentColor"/>
</g>
<g transform="translate(44.3324, 8.0718)">
<rect x="-0.0605" y="-2.0340" width="0.1211" height="2.2970" ry="0.0400" fill="currentColor"/>
</g>
<a style="color:inherit;" xlink:href="textedit:///home/omk/Insync/otaviokavakama%40gmail.com/Google%20Drive/WEBSITE/kavotaman.github.io/lilypond_files/37438624f5cb279b4735e40412eaca01.ly:25:11:12">
<g transform="translate(41.5116, 8.8718)">
<path transform="scale(0.0032, -0.0032)" d="M212 138c59 0 113 -31 113 -95c0 -71 -52 -120 -99 -148c-34 -21 -73 -33 -113 -33c-59 0 -113 31 -113 95c0 71 53 120 100 148c34 21 72 33 112 33z" fill="currentColor"/>
</g>
</a>
<g transform="translate(42.4917, 8.0718)">
<rect x="-0.0605" y="-1.8205" width="0.1211" height="2.4835" ry="0.0400" fill="currentColor"/>
</g>
<a style="color:inherit;" xlink:href="textedit:///home/omk/Insync/otaviokavakama%40gmail.com/Google%20Drive/WEBSITE/kavotaman.github.io/lilypond_files/37438624f5cb279b4735e40412eaca01.ly:25:13:14">
<g transform="translate(43.3523, 8.4718)">
<path transform="scale(0.0032, -0.0032)" d="M212 138c59 0 113 -31 113 -95c0 -71 -52 -120 -99 -148c-34 -21 -73 -33 -113 -33c-59 0 -113 31 -113 95c0 71 53 120 100 148c34 21 72 33 112 33z" fill="currentColor"/>
</g>
</a>
<g transform="translate(53.4308, 4.8726)">
<g>
<path transform="scale(0.0020, -0.0020)" d="M129 129h130c0 -52 32 -100 81 -100c10 0 14 -8 14 -15s-4 -14 -14 -14c-49 0 -97 14 -146 14s-96 -14 -145 -14c-10 0 -15 7 -15 14s5 15 15 15c49 0 80 48 80 100zM0 250l129 250c3 7 13 3 21 0c14 -6 28 -14 44 -14s31 8 45 14c2 1 2 1 4 1c8 0 16 -9 16 -21v-351
h-130v215c0 15 -11 23 -20 23c-5 0 -9 -2 -11 -7l-66 -127c-4 -7 -9 -9 -15 -9c-9 0 -19 7 -19 17c0 3 0 6 2 9z" fill="currentColor"/>

<path transform="translate(0.7170, 0.0000) scale(0.0020, -0.0020)" d="M0 51c0 28 23 51 51 51s51 -23 51 -51s-23 -51 -51 -51s-51 23 -51 51z" fill="currentColor"/>
</g>
</g>
<g transform="translate(52.4029, 3.3507)">
<line stroke-linejoin="round" stroke-linecap="round" stroke-width="0.1490" stroke="currentColor" x1="8.6191" y1="-0.0000" x2="8.6191" y2="2.0000"/>
</g>
<g transform="translate(52.4029, 3.3507)">
<line stroke-linejoin="round" stroke-linecap="round" stroke-width="0.1490" stroke="currentColor" x1="0.1025" y1="-0.0000" x2="0.1025" y2="2.0000"/>
</g>
<g transform="translate(52.4029, 3.3507)">
<line stroke-linejoin="round" stroke-linecap="round" stroke-width="0.1490" stroke="currentColor" x1="0.1025" y1="-0.0000" x2="8.6191" y2="-0.0000"/>
</g>
<g transform="translate(40.5905, 6.4718)">
<polygon stroke-linejoin="round" stroke-linecap="round" stroke-width="0.0800" fill="currentColor" stroke="currentColor" points="5.6031 -0.8066 5.6031 -0.5026 0.0400 0.1520 0.0400 -0.1520"/>
</g>
<g transform="translate(53.6435, 8.0718)">
<rect x="-0.0605" y="0.1964" width="0.1211" height="2.4702" ry="0.0400" fill="currentColor"/>
</g>
<a style="color:inherit;" xlink:href="textedit:///home/omk/Insync/otaviokavakama%40gmail.com/Google%20Drive/WEBSITE/kavotaman.github.io/lilypond_files/37438624f5cb279b4735e40412eaca01.ly:28:9:10">
<g transform="translate(57.5762, 8.4718)">
<path transform="scale(0.0032, -0.0032)" d="M212 138c59 0 113 -31 113 -95c0 -71 -52 -120 -99 -148c-34 -21 -73 -33 -113 -33c-59 0 -113 31 -113 95c0 71 53 120 100 148c34 21 72 33 112 33z" fill="currentColor"/>
</g>
</a>
<g transform="translate(58.5563, 8.0718)">
<rect x="-0.0605" y="-2.4000" width="0.1211" height="2.6629" ry="0.0400" fill="currentColor"/>
</g>
<a style="color:inherit;" xlink:href="textedit:///home/omk/Insync/otaviokavakama%40gmail.com/Google%20Drive/WEBSITE/kavotaman.github.io/lilypond_files/37438624f5cb279b4735e40412eaca01.ly:29:6:7">
<g transform="translate(62.8627, 8.8718)">
<path transform="scale(0.0032, -0.0032)" d="M310 63c0 23 -19 40 -40 40c-4 0 -8 -1 -12 -2c-30 -8 -75 -38 -111 -61s-81 -52 -101 -76c-7 -8 -10 -17 -10 -27c0 -23 19 -40 40 -40c4 0 8 1 12 2c30 8 75 38 111 61s81 52 101 76c7 8 10 17 10 27zM256 138c50 0 90 -22 90 -77c0 -18 -5 -37 -10 -55
c-11 -38 -30 -74 -63 -96c-53 -35 -111 -48 -183 -48c-50 0 -90 22 -90 77c0 18 5 37 10 55c11 38 30 74 63 96c53 36 111 48 183 48z" fill="currentColor"/>
</g>
</a>
<g transform="translate(64.3230, 8.4718)">
<path transform="scale(0.0032, -0.0032)" d="M0 0c0 30 25 55 55 55s55 -25 55 -55s-25 -55 -55 -55s-55 25 -55 55z" fill="currentColor"/>
</g>
<g transform="translate(63.9093, 8.0718)">
<rect x="-0.0605" y="-2.0000" width="0.1211" height="2.6036" ry="0.0400" fill="currentColor"/>
</g>
<a style="color:inherit;" xlink:href="textedit:///home/omk/Insync/otaviokavakama%40gmail.com/Google%20Drive/WEBSITE/kavotaman.github.io/lilypond_files/37438624f5cb279b4735e40412eaca01.ly:24:10:11">
<g transform="translate(16.6510, 8.0718)">
<path transform="scale(0.0032, -0.0032)" d="M212 138c59 0 113 -31 113 -95c0 -71 -52 -120 -99 -148c-34 -21 -73 -33 -113 -33c-59 0 -113 31 -113 95c0 71 53 120 100 148c34 21 72 33 112 33z" fill="currentColor"/>
</g>
</a>
<g transform="translate(16.7115, 8.0718)">
<rect x="-0.0605" y="0.1371" width="0.1211" height="2.5296" ry="0.0400" fill="currentColor"/>
</g>
<g transform="translate(13.8538, 8.0718)">
<rect x="-0.0605" y="-0.2629" width="0.1211" height="2.0039" ry="0.0400" fill="currentColor"/>
</g>
<a style="color:inherit;" xlink:href="textedit:///home/omk/Insync/otaviokavakama%40gmail.com/Google%20Drive/WEBSITE/kavotaman.github.io/lilypond_files/37438624f5cb279b4735e40412eaca01.ly:24:13:14">
<g transform="translate(19.6397, 7.2718)">
<path transform="scale(0.0032, -0.0032)" d="M212 138c59 0 113 -31 113 -95c0 -71 -52 -120 -99 -148c-34 -21 -73 -33 -113 -33c-59 0 -113 31 -113 95c0 71 53 120 100 148c34 21 72 33 112 33z" fill="currentColor"/>
</g>
</a>
<a style="color:inherit;" xlink:href="textedit:///home/omk/Insync/otaviokavakama%40gmail.com/Google%20Drive/WEBSITE/kavotaman.github.io/lilypond_files/37438624f5cb279b4735e40412eaca01.ly:25:6:7">
<g transform="translate(39.6709, 9.2718)">
<path transform="scale(0.0032, -0.0032)" d="M212 138c59 0 113 -31 113 -95c0 -71 -52 -120 -99 -148c-34 -21 -73 -33 -113 -33c-59 0 -113 31 -113 95c0 71 53 120 100 148c34 21 72 33 112 33z" fill="currentColor"/>
</g>
</a>
<g transform="translate(62.8137, 4.8585)">
<g>
<path transform="scale(0.0020, -0.0020)" d="M129 149h7c36 0 74 -13 111 -40c19 -14 40 -21 59 -21c22 0 40 10 46 31c2 7 7 11 13 11c7 0 15 -5 15 -14v-5c-19 -71 -84 -111 -146 -111c-38 0 -75 15 -101 47c-12 15 -28 22 -44 22c-29 0 -57 -21 -60 -56c-1 -9 -7 -13 -14 -13s-15 5 -15 14c0 173 233 163 233 341
c0 56 -14 116 -62 116c-33 0 -66 -15 -66 -44c0 -24 31 -37 31 -61c0 -34 -27 -61 -61 -61s-61 27 -61 61c0 78 74 134 157 134c98 0 191 -55 191 -145c0 -144 -135 -156 -233 -206z" fill="currentColor"/>

<path transform="translate(0.7512, 0.0000) scale(0.0020, -0.0020)" d="M0 51c0 28 23 51 51 51s51 -23 51 -51s-23 -51 -51 -51s-51 23 -51 51z" fill="currentColor"/>
</g>
</g>
<g transform="translate(60.9475, 3.3507)">
<line stroke-linejoin="round" stroke-linecap="round" stroke-width="0.1490" stroke="currentColor" x1="6.5478" y1="-0.0000" x2="6.5478" y2="-0.0000"/>
</g>
<g transform="translate(60.9475, 3.3507)">
<line stroke-linejoin="round" stroke-linecap="round" stroke-width="0.1490" stroke="currentColor" x1="0.9407" y1="-0.0000" x2="0.9407" y2="2.0000"/>
</g>
<g transform="translate(60.9475, 3.3507)">
<line stroke-linejoin="round" stroke-linecap="round" stroke-width="0.1490" stroke="currentColor" x1="0.9407" y1="-0.0000" x2="6.5478" y2="-0.0000"/>
</g>
<a style="color:inherit;" xlink:href="textedit:///home/omk/Insync/otaviokavakama%40gmail.com/Google%20Drive/WEBSITE/kavotaman.github.io/lilypond_files/37438624f5cb279b4735e40412eaca01.ly:24:4:5">
<g transform="translate(11.9525, 7.2718)">
<path transform="scale(0.0032, -0.0032)" d="M212 138c59 0 113 -31 113 -95c0 -71 -52 -120 -99 -148c-34 -21 -73 -33 -113 -33c-59 0 -113 31 -113 95c0 71 53 120 100 148c34 21 72 33 112 33z" fill="currentColor"/>
</g>
</a>
<g transform="translate(3.0762, 8.8718)">
<path transform="scale(0.0032, -0.0032)" d="M379 264c3 0 7 1 10 1c157 0 258 -129 258 -263c0 -77 -33 -155 -108 -211c-22 -16 -46 -29 -72 -37c3 -33 4 -66 4 -99c0 -21 0 -41 -1 -62c-7 -121 -91 -229 -211 -229c-108 0 -196 88 -196 197c0 58 54 103 113 103c54 0 95 -47 95 -103c0 -52 -43 -95 -95 -95
c-9 0 -18 1 -27 4c25 -37 66 -61 113 -61c95 0 156 93 162 191c1 19 2 38 2 57c0 29 -1 58 -3 87c-29 -5 -58 -8 -88 -8c-189 0 -333 173 -333 376c0 177 129 308 244 443c-20 62 -40 124 -48 189c-7 52 -7 105 -7 158c0 114 54 221 147 288c8 6 18 5 25 -1
c72 -83 135 -243 135 -356c0 -142 -84 -255 -176 -364c21 -68 40 -136 57 -205zM463 -201c65 24 110 94 110 161c0 88 -64 175 -167 188c24 -114 44 -227 57 -349zM77 25c0 -133 128 -243 261 -243c27 0 55 1 81 5c-13 126 -35 244 -60 362c-79 -8 -124 -60 -124 -118
c0 -43 25 -88 80 -120c5 -5 7 -11 7 -17c0 -12 -10 -23 -23 -23c-3 0 -7 1 -10 2c-81 43 -118 115 -118 186c0 89 60 177 163 200c-14 57 -30 113 -47 169c-105 -122 -210 -243 -210 -403zM242 784c0 -71 21 -130 39 -188c78 97 142 199 142 324c0 51 -4 72 -20 118
c-99 -46 -161 -145 -161 -254z" fill="currentColor"/>
</g>
<a style="color:inherit;" xlink:href="textedit:///home/omk/Insync/otaviokavakama%40gmail.com/Google%20Drive/WEBSITE/kavotaman.github.io/lilypond_files/37438624f5cb279b4735e40412eaca01.ly:20:2:3">
<g transform="translate(6.5762, 6.4718)">
<path transform="scale(0.0032, -0.0032)" d="M198 -329c-12 0 -21 9 -21 21v138l-79 -30v-154c0 -12 -9 -21 -21 -21s-21 9 -21 21v138l-22 -8c-3 -1 -6 -2 -9 -2c-13 0 -25 11 -25 25v54c0 10 6 20 16 24l40 15v155l-22 -9c-3 -1 -6 -1 -9 -1c-13 0 -25 11 -25 25v54c0 10 6 19 16 23l40 15v154c0 12 9 21 21 21
s21 -9 21 -21v-138l79 30v154c0 12 9 21 21 21s21 -9 21 -21v-138l22 8c3 1 6 2 9 2c13 0 25 -11 25 -25v-54c0 -10 -6 -20 -16 -24l-40 -15v-155l22 9c3 1 6 1 9 1c13 0 25 -11 25 -25v-54c0 -10 -6 -19 -16 -23l-40 -15v-154c0 -12 -9 -21 -21 -21zM98 62v-154l79 30v154z
" fill="currentColor"/>
</g>
</a>
<g transform="translate(8.6062, 8.0718)">
<path transform="scale(0.0032, -0.0032)" d="M356 30c-48 0 -72 40 -72 72c0 37 26 75 70 75c3 0 6 -1 9 -1c-26 36 -67 59 -113 59c-107 0 -113 -74 -113 -189c0 -15 1 -30 1 -46s-1 -31 -1 -46c0 -115 6 -189 113 -189c78 0 133 70 151 149c2 8 8 11 14 11c7 0 15 -5 15 -14c0 -95 -103 -176 -180 -176
c-68 0 -137 20 -184 70c-49 52 -66 124 -66 195s17 143 66 195c47 50 116 70 184 70c86 0 156 -67 171 -153c1 -4 1 -9 1 -13c0 -38 -30 -69 -66 -69z" fill="currentColor"/>
</g>
<g transform="translate(12.0131, 8.0718)">
<rect x="-0.0605" y="-0.6629" width="0.1211" height="2.2674" ry="0.0400" fill="currentColor"/>
</g>
<g transform="translate(19.7002, 8.0718)">
<rect x="-0.0605" y="-0.6629" width="0.1211" height="2.6629" ry="0.0400" fill="currentColor"/>
</g>
<a style="color:inherit;" xlink:href="textedit:///home/omk/Insync/otaviokavakama%40gmail.com/Google%20Drive/WEBSITE/kavotaman.github.io/lilypond_files/37438624f5cb279b4735e40412eaca01.ly:24:8:9">
<g transform="translate(13.7932, 7.6718)">
<path transform="scale(0.0032, -0.0032)" d="M212 138c59 0 113 -31 113 -95c0 -71 -52 -120 -99 -148c-34 -21 -73 -33 -113 -33c-59 0 -113 31 -113 95c0 71 53 120 100 148c34 21 72 33 112 33z" fill="currentColor"/>
</g>
</a>
<a style="color:inherit;" xlink:href="textedit:///home/omk/Insync/otaviokavakama%40gmail.com/Google%20Drive/WEBSITE/kavotaman.github.io/lilypond_files/37438624f5cb279b4735e40412eaca01.ly:24:15:16">
<g transform="translate(22.1416, 8.8718)">
<path transform="scale(0.0032, -0.0032)" d="M212 138c59 0 113 -31 113 -95c0 -71 -52 -120 -99 -148c-34 -21 -73 -33 -113 -33c-59 0 -113 31 -113 95c0 71 53 120 100 148c34 21 72 33 112 33z" fill="currentColor"/>
</g>
</a>
<a style="color:inherit;" xlink:href="textedit:///home/omk/Insync/otaviokavakama%40gmail.com/Google%20Drive/WEBSITE/kavotaman.github.io/lilypond_files/37438624f5cb279b4735e40412eaca01.ly:24:24:25">
<g transform="translate(32.6645, 10.0718)">
<path transform="scale(0.0032, -0.0032)" d="M212 138c59 0 113 -31 113 -95c0 -71 -52 -120 -99 -148c-34 -21 -73 -33 -113 -33c-59 0 -113 31 -113 95c0 71 53 120 100 148c34 21 72 33 112 33z" fill="currentColor"/>
</g>
</a>
<g transform="translate(33.6446, 8.0718)">
<rect x="-0.0605" y="-0.8000" width="0.1211" height="2.6629" ry="0.0400" fill="currentColor"/>
</g>
<a style="color:inherit;" xlink:href="textedit:///home/omk/Insync/otaviokavakama%40gmail.com/Google%20Drive/WEBSITE/kavotaman.github.io/lilypond_files/37438624f5cb279b4735e40412eaca01.ly:25:4:5">
<g transform="translate(35.6532, 8.8718)">
<path transform="scale(0.0032, -0.0032)" d="M212 138c59 0 113 -31 113 -95c0 -71 -52 -120 -99 -148c-34 -21 -73 -33 -113 -33c-59 0 -113 31 -113 95c0 71 53 120 100 148c34 21 72 33 112 33z" fill="currentColor"/>
</g>
</a>
<g transform="translate(36.6333, 8.0718)">
<rect x="-0.0605" y="-2.0000" width="0.1211" height="2.6629" ry="0.0400" fill="currentColor"/>
</g>
<a style="color:inherit;" xlink:href="textedit:///home/omk/Insync/otaviokavakama%40gmail.com/Google%20Drive/WEBSITE/kavotaman.github.io/lilypond_files/37438624f5cb279b4735e40412eaca01.ly:24:18:19">
<g transform="translate(24.9743, 8.0718)">
<path transform="scale(0.0032, -0.0032)" d="M212 138c59 0 113 -31 113 -95c0 -71 -52 -120 -99 -148c-34 -21 -73 -33 -113 -33c-59 0 -113 31 -113 95c0 71 53 120 100 148c34 21 72 33 112 33z" fill="currentColor"/>
</g>
</a>
<g transform="translate(25.0348, 8.0718)">
<rect x="-0.0605" y="0.1371" width="0.1211" height="2.5296" ry="0.0400" fill="currentColor"/>
</g>
<a style="color:inherit;" xlink:href="textedit:///home/omk/Insync/otaviokavakama%40gmail.com/Google%20Drive/WEBSITE/kavotaman.github.io/lilypond_files/37438624f5cb279b4735e40412eaca01.ly:24:20:21">
<g transform="translate(28.6593, 9.6718)">
<path transform="scale(0.0032, -0.0032)" d="M310 63c0 23 -19 40 -40 40c-4 0 -8 -1 -12 -2c-30 -8 -75 -38 -111 -61s-81 -52 -101 -76c-7 -8 -10 -17 -10 -27c0 -23 19 -40 40 -40c4 0 8 1 12 2c30 8 75 38 111 61s81 52 101 76c7 8 10 17 10 27zM256 138c50 0 90 -22 90 -77c0 -18 -5 -37 -10 -55
c-11 -38 -30 -74 -63 -96c-53 -35 -111 -48 -183 -48c-50 0 -90 22 -90 77c0 18 5 37 10 55c11 38 30 74 63 96c53 36 111 48 183 48z" fill="currentColor"/>
</g>
</a>
<g transform="translate(23.1218, 8.0718)">
<rect x="-0.0605" y="-2.0000" width="0.1211" height="2.6629" ry="0.0400" fill="currentColor"/>
</g>
<g transform="translate(29.7059, 8.0718)">
<rect x="-0.0605" y="-1.2000" width="0.1211" height="2.6036" ry="0.0400" fill="currentColor"/>
</g>
</svg>
