<svg xmlns="http://www.w3.org/2000/svg" xmlns:xlink="http://www.w3.org/1999/xlink" version="1.2" width="48.35mm" height="297.00mm" viewBox="0 0 27.5156 169.0094">
<style type="text/css">
<![CDATA[
tspan { white-space: pre; }
]]>
</style>
<!-- Page: 1/1 -->
<g transform="translate(2.2762, 7.8970)">
<line stroke-linejoin="round" stroke-linecap="round" stroke-width="0.0931" stroke="currentColor" x1="0.0466" y1="0" x2="22.9631" y2="0"/>
</g>
<g transform="translate(2.2762, 7.0970)">
<line stroke-linejoin="round" stroke-linecap="round" stroke-width="0.0931" stroke="currentColor" x1="0.0466" y1="0" x2="22.9631" y2="0"/>
</g>
<g transform="translate(2.2762, 6.2970)">
<line stroke-linejoin="round" stroke-linecap="round" stroke-width="0.0931" stroke="currentColor" x1="0.0466" y1="0" x2="22.9631" y2="0"/>
</g>
<g transform="translate(2.2762, 5.4970)">
<line stroke-linejoin="round" stroke-linecap="round" stroke-width="0.0931" stroke="currentColor" x1="0.0466" y1="0" x2="22.9631" y2="0"/>
</g>
<g transform="translate(2.2762, 4.6970)">
<line stroke-linejoin="round" stroke-linecap="round" stroke-width="0.0931" stroke="currentColor" x1="0.0466" y1="0" x2="22.9631" y2="0"/>
</g>
<g transform="translate(2.2762, 8.6970)">
<rect x="20.0108" y="-0.0866" width="1.5610" height="0.1731" ry="0.0866" fill="currentColor"/>
</g>
<g transform="translate(2.2762, 9.4970)">
<rect x="20.0108" y="-0.0866" width="1.5610" height="0.1731" ry="0.0866" fill="currentColor"/>
</g>
<g transform="translate(2.2762, 10.2970)">
<rect x="20.0108" y="-0.0866" width="1.5610" height="0.1731" ry="0.0866" fill="currentColor"/>
</g>
<g transform="translate(2.2762, 8.6970)">
<rect x="16.0523" y="-0.0866" width="1.5610" height="0.1731" ry="0.0866" fill="currentColor"/>
</g>
<g transform="translate(2.2762, 9.4970)">
<rect x="16.0523" y="-0.0866" width="1.5610" height="0.1731" ry="0.0866" fill="currentColor"/>
</g>
<g transform="translate(2.2762, 10.2970)">
<rect x="16.0523" y="-0.0866" width="1.5610" height="0.1731" ry="0.0866" fill="currentColor"/>
</g>
<g transform="translate(2.2762, 11.0970)">
<rect x="16.0523" y="-0.0866" width="1.5610" height="0.1731" ry="0.0866" fill="currentColor"/>
</g>
<g transform="translate(2.2762, 8.6970)">
<rect x="13.3136" y="-0.0866" width="1.5610" height="0.1731" ry="0.0866" fill="currentColor"/>
</g>
<g transform="translate(2.2762, 9.4970)">
<rect x="13.3136" y="-0.0866" width="1.5610" height="0.1731" ry="0.0866" fill="currentColor"/>
</g>
<g transform="translate(2.2762, 10.2970)">
<rect x="13.3136" y="-0.0866" width="1.5610" height="0.1731" ry="0.0866" fill="currentColor"/>
</g>
<g transform="translate(2.2762, 11.0970)">
<rect x="13.3136" y="-0.0866" width="1.5610" height="0.1731" ry="0.0866" fill="currentColor"/>
</g>
<g transform="translate(2.2762, 8.6970)">
<rect x="10.8249" y="-0.0866" width="1.5610" height="0.1731" ry="0.0866" fill="currentColor"/>
</g>
<g transform="translate(2.2762, 8.6970)">
<rect x="8.0862" y="-0.0866" width="1.5610" height="0.1731" ry="0.0866" fill="currentColor"/>
</g>
<g transform="translate(2.2762, 9.4970)">
<rect x="8.0862" y="-0.0866" width="1.5610" height="0.1731" ry="0.0866" fill="currentColor"/>
</g>
<g transform="translate(21.4703, 6.2970)">
<rect x="0.0000" y="-1.6000" width="0.1770" height="3.2000" ry="0.0000" fill="currentColor"/>
</g>
<a style="color:inherit;" xlink:href="textedit:///home/omk/Insync/otaviokavakama%40gmail.com/Google%20Drive/WEBSITE/kavotaman.github.io/lilypond_files/608fba433a7fdb00b871c893255d6262.ly:20:6:7">
<g transform="translate(15.8500, 11.4970)">
<path transform="scale(0.0032, -0.0032)" d="M212 138c59 0 113 -31 113 -95c0 -71 -52 -120 -99 -148c-34 -21 -73 -33 -113 -33c-59 0 -113 31 -113 95c0 71 53 120 100 148c34 21 72 33 112 33z" fill="currentColor"/>
</g>
</a>
<g transform="translate(16.8301, 6.2970)">
<rect x="-0.0605" y="-0.0000" width="0.1211" height="5.0629" ry="0.0400" fill="currentColor"/>
</g>
<a style="color:inherit;" xlink:href="textedit:///home/omk/Insync/otaviokavakama%40gmail.com/Google%20Drive/WEBSITE/kavotaman.github.io/lilypond_files/608fba433a7fdb00b871c893255d6262.ly:20:8:9">
<g transform="translate(18.5887, 11.0970)">
<path transform="scale(0.0032, -0.0032)" d="M212 138c59 0 113 -31 113 -95c0 -71 -52 -120 -99 -148c-34 -21 -73 -33 -113 -33c-59 0 -113 31 -113 95c0 71 53 120 100 148c34 21 72 33 112 33z" fill="currentColor"/>
</g>
</a>
<g transform="translate(19.5688, 6.2970)">
<rect x="-0.0605" y="-0.0000" width="0.1211" height="4.6629" ry="0.0400" fill="currentColor"/>
</g>
<a style="color:inherit;" xlink:href="textedit:///home/omk/Insync/otaviokavakama%40gmail.com/Google%20Drive/WEBSITE/kavotaman.github.io/lilypond_files/608fba433a7fdb00b871c893255d6262.ly:20:10:11">
<g transform="translate(22.5472, 10.6970)">
<path transform="scale(0.0032, -0.0032)" d="M212 138c59 0 113 -31 113 -95c0 -71 -52 -120 -99 -148c-34 -21 -73 -33 -113 -33c-59 0 -113 31 -113 95c0 71 53 120 100 148c34 21 72 33 112 33z" fill="currentColor"/>
</g>
</a>
<g transform="translate(23.5274, 6.2970)">
<rect x="-0.0605" y="-0.0000" width="0.1211" height="4.2629" ry="0.0400" fill="currentColor"/>
</g>
<a style="color:inherit;" xlink:href="textedit:///home/omk/Insync/otaviokavakama%40gmail.com/Google%20Drive/WEBSITE/kavotaman.github.io/lilypond_files/608fba433a7fdb00b871c893255d6262.ly:20:2:3">
<g transform="translate(10.6225, 9.4970)">
<path transform="scale(0.0032, -0.0032)" d="M212 138c59 0 113 -31 113 -95c0 -71 -52 -120 -99 -148c-34 -21 -73 -33 -113 -33c-59 0 -113 31 -113 95c0 71 53 120 100 148c34 21 72 33 112 33z" fill="currentColor"/>
</g>
</a>
<g transform="translate(3.0762, 7.0970)">
<path transform="scale(0.0032, -0.0032)" d="M379 264c3 0 7 1 10 1c157 0 258 -129 258 -263c0 -77 -33 -155 -108 -211c-22 -16 -46 -29 -72 -37c3 -33 4 -66 4 -99c0 -21 0 -41 -1 -62c-7 -121 -91 -229 -211 -229c-108 0 -196 88 -196 197c0 58 54 103 113 103c54 0 95 -47 95 -103c0 -52 -43 -95 -95 -95
c-9 0 -18 1 -27 4c25 -37 66 -61 113 -61c95 0 156 93 162 191c1 19 2 38 2 57c0 29 -1 58 -3 87c-29 -5 -58 -8 -88 -8c-189 0 -333 173 -333 376c0 177 129 308 244 443c-20 62 -40 124 -48 189c-7 52 -7 105 -7 158c0 114 54 221 147 288c8 6 18 5 25 -1
c72 -83 135 -243 135 -356c0 -142 -84 -255 -176 -364c21 -68 40 -136 57 -205zM463 -201c65 24 110 94 110 161c0 88 -64 175 -167 188c24 -114 44 -227 57 -349zM77 25c0 -133 128 -243 261 -243c27 0 55 1 81 5c-13 126 -35 244 -60 362c-79 -8 -124 -60 -124 -118
c0 -43 25 -88 80 -120c5 -5 7 -11 7 -17c0 -12 -10 -23 -23 -23c-3 0 -7 1 -10 2c-81 43 -118 115 -118 186c0 89 60 177 163 200c-14 57 -30 113 -47 169c-105 -122 -210 -243 -210 -403zM242 784c0 -71 21 -130 39 -188c78 97 142 199 142 324c0 51 -4 72 -20 118
c-99 -46 -161 -145 -161 -254z" fill="currentColor"/>
</g>
<g transform="translate(7.2762, 6.2970)">
<path transform="scale(0.0032, -0.0032)" d="M356 30c-48 0 -72 40 -72 72c0 37 26 75 70 75c3 0 6 -1 9 -1c-26 36 -67 59 -113 59c-107 0 -113 -74 -113 -189c0 -15 1 -30 1 -46s-1 -31 -1 -46c0 -115 6 -189 113 -189c78 0 133 70 151 149c2 8 8 11 14 11c7 0 15 -5 15 -14c0 -95 -103 -176 -180 -176
c-68 0 -137 20 -184 70c-49 52 -66 124 -66 195s17 143 66 195c47 50 116 70 184 70c86 0 156 -67 171 -153c1 -4 1 -9 1 -13c0 -38 -30 -69 -66 -69z" fill="currentColor"/>
</g>
<g transform="translate(11.6027, 6.2970)">
<rect x="-0.0605" y="-0.0000" width="0.1211" height="3.0629" ry="0.0400" fill="currentColor"/>
</g>
<a style="color:inherit;" xlink:href="textedit:///home/omk/Insync/otaviokavakama%40gmail.com/Google%20Drive/WEBSITE/kavotaman.github.io/lilypond_files/608fba433a7fdb00b871c893255d6262.ly:20:4:5">
<g transform="translate(13.3613, 9.0970)">
<path transform="scale(0.0032, -0.0032)" d="M212 138c59 0 113 -31 113 -95c0 -71 -52 -120 -99 -148c-34 -21 -73 -33 -113 -33c-59 0 -113 31 -113 95c0 71 53 120 100 148c34 21 72 33 112 33z" fill="currentColor"/>
</g>
</a>
<g transform="translate(14.3414, 6.2970)">
<rect x="-0.0605" y="-0.0000" width="0.1211" height="2.6629" ry="0.0400" fill="currentColor"/>
</g>
</svg>
