<svg xmlns="http://www.w3.org/2000/svg" xmlns:xlink="http://www.w3.org/1999/xlink" version="1.2" width="184.06mm" height="297.00mm" viewBox="0 0 104.7399 169.0094">
<style type="text/css">
<![CDATA[
tspan { white-space: pre; }
]]>
</style>
<!-- Page: 1/1 -->
<g transform="translate(2.2762, 7.8970)">
<line stroke-linejoin="round" stroke-linecap="round" stroke-width="0.0931" stroke="currentColor" x1="0.0466" y1="0" x2="100.1409" y2="0"/>
</g>
<g transform="translate(2.2762, 7.0970)">
<line stroke-linejoin="round" stroke-linecap="round" stroke-width="0.0931" stroke="currentColor" x1="0.0466" y1="0" x2="100.1409" y2="0"/>
</g>
<g transform="translate(2.2762, 6.2970)">
<line stroke-linejoin="round" stroke-linecap="round" stroke-width="0.0931" stroke="currentColor" x1="0.0466" y1="0" x2="100.1409" y2="0"/>
</g>
<g transform="translate(2.2762, 5.4970)">
<line stroke-linejoin="round" stroke-linecap="round" stroke-width="0.0931" stroke="currentColor" x1="0.0466" y1="0" x2="100.1409" y2="0"/>
</g>
<g transform="translate(2.2762, 4.6970)">
<line stroke-linejoin="round" stroke-linecap="round" stroke-width="0.0931" stroke="currentColor" x1="0.0466" y1="0" x2="100.1409" y2="0"/>
</g>
<g transform="translate(43.4033, 6.2970)">
<rect x="0.0000" y="-1.6000" width="0.1770" height="3.2000" ry="0.0000" fill="currentColor"/>
</g>
<g transform="translate(21.1611, 6.2970)">
<rect x="0.0000" y="-1.6000" width="0.1770" height="3.2000" ry="0.0000" fill="currentColor"/>
</g>
<g transform="translate(67.5765, 6.2970)">
<rect x="0.0000" y="-1.6000" width="0.1770" height="3.2000" ry="0.0000" fill="currentColor"/>
</g>
<g transform="translate(91.7695, 6.2970)">
<rect x="0.0000" y="-1.6000" width="0.1770" height="3.2000" ry="0.0000" fill="currentColor"/>
</g>
<g transform="translate(81.2523, 6.2970)">
<rect x="0.0000" y="-1.6000" width="0.1770" height="3.2000" ry="0.0000" fill="currentColor"/>
</g>
<g transform="translate(102.2867, 6.2970)">
<rect x="0.0000" y="-1.6000" width="0.1770" height="3.2000" ry="0.0000" fill="currentColor"/>
</g>
<g transform="translate(32.9059, 6.2970)">
<rect x="0.0000" y="-1.6000" width="0.1770" height="3.2000" ry="0.0000" fill="currentColor"/>
</g>
<g transform="translate(53.9007, 6.2970)">
<rect x="0.0000" y="-1.6000" width="0.1770" height="3.2000" ry="0.0000" fill="currentColor"/>
</g>
<g transform="translate(2.2762, 3.8970)">
<rect x="68.1328" y="-0.0866" width="1.5610" height="0.1731" ry="0.0866" fill="currentColor"/>
</g>
<g transform="translate(2.2762, 3.8970)">
<rect x="54.4570" y="-0.0866" width="1.5610" height="0.1731" ry="0.0866" fill="currentColor"/>
</g>
<g transform="translate(74.4110, 6.2970)">
<rect x="-0.0605" y="-1.4629" width="0.1211" height="2.4052" ry="0.0400" fill="currentColor"/>
</g>
<a style="color:inherit;" xlink:href="textedit:///home/omk/Insync/otaviokavakama%40gmail.com/Google%20Drive/WEBSITE/kavotaman.github.io/lilypond_files/e10ef8553b6d742a01cd6d0f9d435f87.ly:23:22:23">
<g transform="translate(70.6691, 3.8970)">
<path transform="scale(0.0032, -0.0032)" d="M212 138c59 0 113 -31 113 -95c0 -71 -52 -120 -99 -148c-34 -21 -73 -33 -113 -33c-59 0 -113 31 -113 95c0 71 53 120 100 148c34 21 72 33 112 33z" fill="currentColor"/>
</g>
</a>
<g transform="translate(70.7297, 6.2970)">
<rect x="-0.0605" y="-2.2629" width="0.1211" height="3.0155" ry="0.0400" fill="currentColor"/>
</g>
<a style="color:inherit;" xlink:href="textedit:///home/omk/Insync/otaviokavakama%40gmail.com/Google%20Drive/WEBSITE/kavotaman.github.io/lilypond_files/e10ef8553b6d742a01cd6d0f9d435f87.ly:23:24:25">
<g transform="translate(72.5098, 4.2970)">
<path transform="scale(0.0032, -0.0032)" d="M212 138c59 0 113 -31 113 -95c0 -71 -52 -120 -99 -148c-34 -21 -73 -33 -113 -33c-59 0 -113 31 -113 95c0 71 53 120 100 148c34 21 72 33 112 33z" fill="currentColor"/>
</g>
</a>
<g transform="translate(72.5704, 6.2970)">
<rect x="-0.0605" y="-1.8629" width="0.1211" height="2.7104" ry="0.0400" fill="currentColor"/>
</g>
<a style="color:inherit;" xlink:href="textedit:///home/omk/Insync/otaviokavakama%40gmail.com/Google%20Drive/WEBSITE/kavotaman.github.io/lilypond_files/e10ef8553b6d742a01cd6d0f9d435f87.ly:23:26:27">
<g transform="translate(74.3505, 4.6970)">
<path transform="scale(0.0032, -0.0032)" d="M212 138c59 0 113 -31 113 -95c0 -71 -52 -120 -99 -148c-34 -21 -73 -33 -113 -33c-59 0 -113 31 -113 95c0 71 53 120 100 148c34 21 72 33 112 33z" fill="currentColor"/>
</g>
</a>
<g transform="translate(58.8946, 6.2970)">
<rect x="-0.0605" y="-1.8629" width="0.1211" height="2.7104" ry="0.0400" fill="currentColor"/>
</g>
<a style="color:inherit;" xlink:href="textedit:///home/omk/Insync/otaviokavakama%40gmail.com/Google%20Drive/WEBSITE/kavotaman.github.io/lilypond_files/e10ef8553b6d742a01cd6d0f9d435f87.ly:23:9:10">
<g transform="translate(58.8340, 4.2970)">
<path transform="scale(0.0032, -0.0032)" d="M212 138c59 0 113 -31 113 -95c0 -71 -52 -120 -99 -148c-34 -21 -73 -33 -113 -33c-59 0 -113 31 -113 95c0 71 53 120 100 148c34 21 72 33 112 33z" fill="currentColor"/>
</g>
</a>
<a style="color:inherit;" xlink:href="textedit:///home/omk/Insync/otaviokavakama%40gmail.com/Google%20Drive/WEBSITE/kavotaman.github.io/lilypond_files/e10ef8553b6d742a01cd6d0f9d435f87.ly:23:11:12">
<g transform="translate(60.6747, 4.6970)">
<path transform="scale(0.0032, -0.0032)" d="M212 138c59 0 113 -31 113 -95c0 -71 -52 -120 -99 -148c-34 -21 -73 -33 -113 -33c-59 0 -113 31 -113 95c0 71 53 120 100 148c34 21 72 33 112 33z" fill="currentColor"/>
</g>
</a>
<g transform="translate(57.0539, 6.2970)">
<rect x="-0.0605" y="-2.2629" width="0.1211" height="3.0155" ry="0.0400" fill="currentColor"/>
</g>
<a style="color:inherit;" xlink:href="textedit:///home/omk/Insync/otaviokavakama%40gmail.com/Google%20Drive/WEBSITE/kavotaman.github.io/lilypond_files/e10ef8553b6d742a01cd6d0f9d435f87.ly:23:7:8">
<g transform="translate(56.9934, 3.8970)">
<path transform="scale(0.0032, -0.0032)" d="M212 138c59 0 113 -31 113 -95c0 -71 -52 -120 -99 -148c-34 -21 -73 -33 -113 -33c-59 0 -113 31 -113 95c0 71 53 120 100 148c34 21 72 33 112 33z" fill="currentColor"/>
</g>
</a>
<g transform="translate(55.1527, 6.9516)">
<polygon stroke-linejoin="round" stroke-linecap="round" stroke-width="0.0800" fill="currentColor" stroke="currentColor" points="5.6031 0.1389 5.6031 0.4429 0.0400 0.1520 0.0400 -0.1520"/>
</g>
<a style="color:inherit;" xlink:href="textedit:///home/omk/Insync/otaviokavakama%40gmail.com/Google%20Drive/WEBSITE/kavotaman.github.io/lilypond_files/e10ef8553b6d742a01cd6d0f9d435f87.ly:23:18:19">
<g transform="translate(68.8285, 4.2970)">
<path transform="scale(0.0032, -0.0032)" d="M212 138c59 0 113 -31 113 -95c0 -71 -52 -120 -99 -148c-34 -21 -73 -33 -113 -33c-59 0 -113 31 -113 95c0 71 53 120 100 148c34 21 72 33 112 33z" fill="currentColor"/>
</g>
</a>
<g transform="translate(65.0646, 6.2970)">
<rect x="-0.0605" y="-0.2629" width="0.1211" height="2.6629" ry="0.0400" fill="currentColor"/>
</g>
<a style="color:inherit;" xlink:href="textedit:///home/omk/Insync/otaviokavakama%40gmail.com/Google%20Drive/WEBSITE/kavotaman.github.io/lilypond_files/e10ef8553b6d742a01cd6d0f9d435f87.ly:23:16:17">
<g transform="translate(65.0041, 5.8970)">
<path transform="scale(0.0032, -0.0032)" d="M212 138c59 0 113 -31 113 -95c0 -71 -52 -120 -99 -148c-34 -21 -73 -33 -113 -33c-59 0 -113 31 -113 95c0 71 53 120 100 148c34 21 72 33 112 33z" fill="currentColor"/>
</g>
</a>
<g transform="translate(68.8890, 6.2970)">
<rect x="-0.0605" y="-1.8629" width="0.1211" height="2.5206" ry="0.0400" fill="currentColor"/>
</g>
<g transform="translate(62.5759, 6.2970)">
<rect x="-0.0605" y="-1.0629" width="0.1211" height="2.6629" ry="0.0400" fill="currentColor"/>
</g>
<a style="color:inherit;" xlink:href="textedit:///home/omk/Insync/otaviokavakama%40gmail.com/Google%20Drive/WEBSITE/kavotaman.github.io/lilypond_files/e10ef8553b6d742a01cd6d0f9d435f87.ly:23:13:14">
<g transform="translate(62.5154, 5.0970)">
<path transform="scale(0.0032, -0.0032)" d="M212 138c59 0 113 -31 113 -95c0 -71 -52 -120 -99 -148c-34 -21 -73 -33 -113 -33c-59 0 -113 31 -113 95c0 71 53 120 100 148c34 21 72 33 112 33z" fill="currentColor"/>
</g>
</a>
<g transform="translate(60.7353, 6.2970)">
<rect x="-0.0605" y="-1.4629" width="0.1211" height="2.4052" ry="0.0400" fill="currentColor"/>
</g>
<g transform="translate(96.5293, 6.2970)">
<rect x="-0.0605" y="-2.0000" width="0.1211" height="2.6629" ry="0.0400" fill="currentColor"/>
</g>
<a style="color:inherit;" xlink:href="textedit:///home/omk/Insync/otaviokavakama%40gmail.com/Google%20Drive/WEBSITE/kavotaman.github.io/lilypond_files/e10ef8553b6d742a01cd6d0f9d435f87.ly:24:15:16">
<g transform="translate(95.5491, 7.0970)">
<path transform="scale(0.0032, -0.0032)" d="M212 138c59 0 113 -31 113 -95c0 -71 -52 -120 -99 -148c-34 -21 -73 -33 -113 -33c-59 0 -113 31 -113 95c0 71 53 120 100 148c34 21 72 33 112 33z" fill="currentColor"/>
</g>
</a>
<g transform="translate(93.0363, 6.2970)">
<rect x="-0.0605" y="-0.2629" width="0.1211" height="2.6629" ry="0.0400" fill="currentColor"/>
</g>
<g transform="translate(68.8285, 6.9516)">
<polygon stroke-linejoin="round" stroke-linecap="round" stroke-width="0.0800" fill="currentColor" stroke="currentColor" points="5.6031 0.1389 5.6031 0.4429 0.0400 0.1520 0.0400 -0.1520"/>
</g>
<a style="color:inherit;" xlink:href="textedit:///home/omk/Insync/otaviokavakama%40gmail.com/Google%20Drive/WEBSITE/kavotaman.github.io/lilypond_files/e10ef8553b6d742a01cd6d0f9d435f87.ly:24:12:13">
<g transform="translate(92.9758, 5.8970)">
<path transform="scale(0.0032, -0.0032)" d="M212 138c59 0 113 -31 113 -95c0 -71 -52 -120 -99 -148c-34 -21 -73 -33 -113 -33c-59 0 -113 31 -113 95c0 71 53 120 100 148c34 21 72 33 112 33z" fill="currentColor"/>
</g>
</a>
<g transform="translate(98.5031, 6.2970)">
<rect x="-0.0605" y="-0.2036" width="0.1211" height="2.6036" ry="0.0400" fill="currentColor"/>
</g>
<a style="color:inherit;" xlink:href="textedit:///home/omk/Insync/otaviokavakama%40gmail.com/Google%20Drive/WEBSITE/kavotaman.github.io/lilypond_files/e10ef8553b6d742a01cd6d0f9d435f87.ly:24:17:18">
<g transform="translate(98.4426, 5.8970)">
<path transform="scale(0.0032, -0.0032)" d="M310 63c0 23 -19 40 -40 40c-4 0 -8 -1 -12 -2c-30 -8 -75 -38 -111 -61s-81 -52 -101 -76c-7 -8 -10 -17 -10 -27c0 -23 19 -40 40 -40c4 0 8 1 12 2c30 8 75 38 111 61s81 52 101 76c7 8 10 17 10 27zM256 138c50 0 90 -22 90 -77c0 -18 -5 -37 -10 -55
c-11 -38 -30 -74 -63 -96c-53 -35 -111 -48 -183 -48c-50 0 -90 22 -90 77c0 18 5 37 10 55c11 38 30 74 63 96c53 36 111 48 183 48z" fill="currentColor"/>
</g>
</a>
<g transform="translate(82.5191, 6.2970)">
<rect x="-0.0605" y="-0.2629" width="0.1211" height="2.6629" ry="0.0400" fill="currentColor"/>
</g>
<a style="color:inherit;" xlink:href="textedit:///home/omk/Insync/otaviokavakama%40gmail.com/Google%20Drive/WEBSITE/kavotaman.github.io/lilypond_files/e10ef8553b6d742a01cd6d0f9d435f87.ly:24:4:5">
<g transform="translate(82.4585, 5.8970)">
<path transform="scale(0.0032, -0.0032)" d="M212 138c59 0 113 -31 113 -95c0 -71 -52 -120 -99 -148c-34 -21 -73 -33 -113 -33c-59 0 -113 31 -113 95c0 71 53 120 100 148c34 21 72 33 112 33z" fill="currentColor"/>
</g>
</a>
<g transform="translate(78.7404, 6.2970)">
<rect x="-0.0605" y="-0.2629" width="0.1211" height="2.6629" ry="0.0400" fill="currentColor"/>
</g>
<a style="color:inherit;" xlink:href="textedit:///home/omk/Insync/otaviokavakama%40gmail.com/Google%20Drive/WEBSITE/kavotaman.github.io/lilypond_files/e10ef8553b6d742a01cd6d0f9d435f87.ly:23:31:32">
<g transform="translate(78.6799, 5.8970)">
<path transform="scale(0.0032, -0.0032)" d="M212 138c59 0 113 -31 113 -95c0 -71 -52 -120 -99 -148c-34 -21 -73 -33 -113 -33c-59 0 -113 31 -113 95c0 71 53 120 100 148c34 21 72 33 112 33z" fill="currentColor"/>
</g>
</a>
<g transform="translate(76.2517, 6.2970)">
<rect x="-0.0605" y="-1.0629" width="0.1211" height="2.6629" ry="0.0400" fill="currentColor"/>
</g>
<g transform="translate(86.0120, 6.2970)">
<rect x="-0.0605" y="-2.0000" width="0.1211" height="2.6629" ry="0.0400" fill="currentColor"/>
</g>
<g transform="translate(87.9859, 6.2970)">
<rect x="-0.0605" y="-0.2036" width="0.1211" height="2.6036" ry="0.0400" fill="currentColor"/>
</g>
<a style="color:inherit;" xlink:href="textedit:///home/omk/Insync/otaviokavakama%40gmail.com/Google%20Drive/WEBSITE/kavotaman.github.io/lilypond_files/e10ef8553b6d742a01cd6d0f9d435f87.ly:24:9:10">
<g transform="translate(87.9254, 5.8970)">
<path transform="scale(0.0032, -0.0032)" d="M310 63c0 23 -19 40 -40 40c-4 0 -8 -1 -12 -2c-30 -8 -75 -38 -111 -61s-81 -52 -101 -76c-7 -8 -10 -17 -10 -27c0 -23 19 -40 40 -40c4 0 8 1 12 2c30 8 75 38 111 61s81 52 101 76c7 8 10 17 10 27zM256 138c50 0 90 -22 90 -77c0 -18 -5 -37 -10 -55
c-11 -38 -30 -74 -63 -96c-53 -35 -111 -48 -183 -48c-50 0 -90 22 -90 77c0 18 5 37 10 55c11 38 30 74 63 96c53 36 111 48 183 48z" fill="currentColor"/>
</g>
</a>
<a style="color:inherit;" xlink:href="textedit:///home/omk/Insync/otaviokavakama%40gmail.com/Google%20Drive/WEBSITE/kavotaman.github.io/lilypond_files/e10ef8553b6d742a01cd6d0f9d435f87.ly:23:28:29">
<g transform="translate(76.1912, 5.0970)">
<path transform="scale(0.0032, -0.0032)" d="M212 138c59 0 113 -31 113 -95c0 -71 -52 -120 -99 -148c-34 -21 -73 -33 -113 -33c-59 0 -113 31 -113 95c0 71 53 120 100 148c34 21 72 33 112 33z" fill="currentColor"/>
</g>
</a>
<a style="color:inherit;" xlink:href="textedit:///home/omk/Insync/otaviokavakama%40gmail.com/Google%20Drive/WEBSITE/kavotaman.github.io/lilypond_files/e10ef8553b6d742a01cd6d0f9d435f87.ly:24:7:8">
<g transform="translate(85.0319, 7.0970)">
<path transform="scale(0.0032, -0.0032)" d="M212 138c59 0 113 -31 113 -95c0 -71 -52 -120 -99 -148c-34 -21 -73 -33 -113 -33c-59 0 -113 31 -113 95c0 71 53 120 100 148c34 21 72 33 112 33z" fill="currentColor"/>
</g>
</a>
<g transform="translate(25.1666, 6.2970)">
<rect x="-0.0605" y="-0.6629" width="0.1211" height="2.6629" ry="0.0400" fill="currentColor"/>
</g>
<a style="color:inherit;" xlink:href="textedit:///home/omk/Insync/otaviokavakama%40gmail.com/Google%20Drive/WEBSITE/kavotaman.github.io/lilypond_files/e10ef8553b6d742a01cd6d0f9d435f87.ly:21:15:16">
<g transform="translate(25.1061, 5.4970)">
<path transform="scale(0.0032, -0.0032)" d="M212 138c59 0 113 -31 113 -95c0 -71 -52 -120 -99 -148c-34 -21 -73 -33 -113 -33c-59 0 -113 31 -113 95c0 71 53 120 100 148c34 21 72 33 112 33z" fill="currentColor"/>
</g>
</a>
<a style="color:inherit;" xlink:href="textedit:///home/omk/Insync/otaviokavakama%40gmail.com/Google%20Drive/WEBSITE/kavotaman.github.io/lilypond_files/e10ef8553b6d742a01cd6d0f9d435f87.ly:21:17:18">
<g transform="translate(27.8448, 5.0970)">
<path transform="scale(0.0032, -0.0032)" d="M212 138c59 0 113 -31 113 -95c0 -71 -52 -120 -99 -148c-34 -21 -73 -33 -113 -33c-59 0 -113 31 -113 95c0 71 53 120 100 148c34 21 72 33 112 33z" fill="currentColor"/>
</g>
</a>
<g transform="translate(34.1956, 6.2970)">
<rect x="-0.0605" y="-1.0629" width="0.1211" height="2.6629" ry="0.0400" fill="currentColor"/>
</g>
<a style="color:inherit;" xlink:href="textedit:///home/omk/Insync/otaviokavakama%40gmail.com/Google%20Drive/WEBSITE/kavotaman.github.io/lilypond_files/e10ef8553b6d742a01cd6d0f9d435f87.ly:22:4:5">
<g transform="translate(34.1350, 5.0970)">
<path transform="scale(0.0032, -0.0032)" d="M212 138c59 0 113 -31 113 -95c0 -71 -52 -120 -99 -148c-34 -21 -73 -33 -113 -33c-59 0 -113 31 -113 95c0 71 53 120 100 148c34 21 72 33 112 33z" fill="currentColor"/>
</g>
</a>
<g transform="translate(22.4279, 6.2970)">
<rect x="-0.0605" y="-0.2629" width="0.1211" height="2.6629" ry="0.0400" fill="currentColor"/>
</g>
<g transform="translate(30.3940, 6.2970)">
<rect x="-0.0605" y="-0.2629" width="0.1211" height="2.6629" ry="0.0400" fill="currentColor"/>
</g>
<a style="color:inherit;" xlink:href="textedit:///home/omk/Insync/otaviokavakama%40gmail.com/Google%20Drive/WEBSITE/kavotaman.github.io/lilypond_files/e10ef8553b6d742a01cd6d0f9d435f87.ly:21:19:20">
<g transform="translate(30.3335, 5.8970)">
<path transform="scale(0.0032, -0.0032)" d="M212 138c59 0 113 -31 113 -95c0 -71 -52 -120 -99 -148c-34 -21 -73 -33 -113 -33c-59 0 -113 31 -113 95c0 71 53 120 100 148c34 21 72 33 112 33z" fill="currentColor"/>
</g>
</a>
<g transform="translate(27.9053, 6.2970)">
<rect x="-0.0605" y="-1.0629" width="0.1211" height="2.6629" ry="0.0400" fill="currentColor"/>
</g>
<a style="color:inherit;" xlink:href="textedit:///home/omk/Insync/otaviokavakama%40gmail.com/Google%20Drive/WEBSITE/kavotaman.github.io/lilypond_files/e10ef8553b6d742a01cd6d0f9d435f87.ly:21:7:8">
<g transform="translate(13.3613, 5.4970)">
<path transform="scale(0.0032, -0.0032)" d="M212 138c59 0 113 -31 113 -95c0 -71 -52 -120 -99 -148c-34 -21 -73 -33 -113 -33c-59 0 -113 31 -113 95c0 71 53 120 100 148c34 21 72 33 112 33z" fill="currentColor"/>
</g>
</a>
<g transform="translate(10.6831, 6.2970)">
<rect x="-0.0605" y="-0.2629" width="0.1211" height="2.6629" ry="0.0400" fill="currentColor"/>
</g>
<g transform="translate(7.2762, 6.2970)">
<path transform="scale(0.0032, -0.0032)" d="M356 30c-48 0 -72 40 -72 72c0 37 26 75 70 75c3 0 6 -1 9 -1c-26 36 -67 59 -113 59c-107 0 -113 -74 -113 -189c0 -15 1 -30 1 -46s-1 -31 -1 -46c0 -115 6 -189 113 -189c78 0 133 70 151 149c2 8 8 11 14 11c7 0 15 -5 15 -14c0 -95 -103 -176 -180 -176
c-68 0 -137 20 -184 70c-49 52 -66 124 -66 195s17 143 66 195c47 50 116 70 184 70c86 0 156 -67 171 -153c1 -4 1 -9 1 -13c0 -38 -30 -69 -66 -69z" fill="currentColor"/>
</g>
<g transform="translate(3.0762, 7.0970)">
<path transform="scale(0.0032, -0.0032)" d="M379 264c3 0 7 1 10 1c157 0 258 -129 258 -263c0 -77 -33 -155 -108 -211c-22 -16 -46 -29 -72 -37c3 -33 4 -66 4 -99c0 -21 0 -41 -1 -62c-7 -121 -91 -229 -211 -229c-108 0 -196 88 -196 197c0 58 54 103 113 103c54 0 95 -47 95 -103c0 -52 -43 -95 -95 -95
c-9 0 -18 1 -27 4c25 -37 66 -61 113 -61c95 0 156 93 162 191c1 19 2 38 2 57c0 29 -1 58 -3 87c-29 -5 -58 -8 -88 -8c-189 0 -333 173 -333 376c0 177 129 308 244 443c-20 62 -40 124 -48 189c-7 52 -7 105 -7 158c0 114 54 221 147 288c8 6 18 5 25 -1
c72 -83 135 -243 135 -356c0 -142 -84 -255 -176 -364c21 -68 40 -136 57 -205zM463 -201c65 24 110 94 110 161c0 88 -64 175 -167 188c24 -114 44 -227 57 -349zM77 25c0 -133 128 -243 261 -243c27 0 55 1 81 5c-13 126 -35 244 -60 362c-79 -8 -124 -60 -124 -118
c0 -43 25 -88 80 -120c5 -5 7 -11 7 -17c0 -12 -10 -23 -23 -23c-3 0 -7 1 -10 2c-81 43 -118 115 -118 186c0 89 60 177 163 200c-14 57 -30 113 -47 169c-105 -122 -210 -243 -210 -403zM242 784c0 -71 21 -130 39 -188c78 97 142 199 142 324c0 51 -4 72 -20 118
c-99 -46 -161 -145 -161 -254z" fill="currentColor"/>
</g>
<a style="color:inherit;" xlink:href="textedit:///home/omk/Insync/otaviokavakama%40gmail.com/Google%20Drive/WEBSITE/kavotaman.github.io/lilypond_files/e10ef8553b6d742a01cd6d0f9d435f87.ly:21:4:5">
<g transform="translate(10.6225, 5.8970)">
<path transform="scale(0.0032, -0.0032)" d="M212 138c59 0 113 -31 113 -95c0 -71 -52 -120 -99 -148c-34 -21 -73 -33 -113 -33c-59 0 -113 31 -113 95c0 71 53 120 100 148c34 21 72 33 112 33z" fill="currentColor"/>
</g>
</a>
<a style="color:inherit;" xlink:href="textedit:///home/omk/Insync/otaviokavakama%40gmail.com/Google%20Drive/WEBSITE/kavotaman.github.io/lilypond_files/e10ef8553b6d742a01cd6d0f9d435f87.ly:21:13:14">
<g transform="translate(22.3673, 5.8970)">
<path transform="scale(0.0032, -0.0032)" d="M212 138c59 0 113 -31 113 -95c0 -71 -52 -120 -99 -148c-34 -21 -73 -33 -113 -33c-59 0 -113 31 -113 95c0 71 53 120 100 148c34 21 72 33 112 33z" fill="currentColor"/>
</g>
</a>
<g transform="translate(18.6492, 6.2970)">
<rect x="-0.0605" y="-0.2629" width="0.1211" height="2.6629" ry="0.0400" fill="currentColor"/>
</g>
<a style="color:inherit;" xlink:href="textedit:///home/omk/Insync/otaviokavakama%40gmail.com/Google%20Drive/WEBSITE/kavotaman.github.io/lilypond_files/e10ef8553b6d742a01cd6d0f9d435f87.ly:21:11:12">
<g transform="translate(18.5887, 5.8970)">
<path transform="scale(0.0032, -0.0032)" d="M212 138c59 0 113 -31 113 -95c0 -71 -52 -120 -99 -148c-34 -21 -73 -33 -113 -33c-59 0 -113 31 -113 95c0 71 53 120 100 148c34 21 72 33 112 33z" fill="currentColor"/>
</g>
</a>
<g transform="translate(16.1605, 6.2970)">
<rect x="-0.0605" y="-1.0629" width="0.1211" height="2.6629" ry="0.0400" fill="currentColor"/>
</g>
<a style="color:inherit;" xlink:href="textedit:///home/omk/Insync/otaviokavakama%40gmail.com/Google%20Drive/WEBSITE/kavotaman.github.io/lilypond_files/e10ef8553b6d742a01cd6d0f9d435f87.ly:21:9:10">
<g transform="translate(16.1000, 5.0970)">
<path transform="scale(0.0032, -0.0032)" d="M212 138c59 0 113 -31 113 -95c0 -71 -52 -120 -99 -148c-34 -21 -73 -33 -113 -33c-59 0 -113 31 -113 95c0 71 53 120 100 148c34 21 72 33 112 33z" fill="currentColor"/>
</g>
</a>
<g transform="translate(13.4218, 6.2970)">
<rect x="-0.0605" y="-0.6629" width="0.1211" height="2.6629" ry="0.0400" fill="currentColor"/>
</g>
<g transform="translate(47.4317, 6.2970)">
<rect x="-0.0605" y="-1.4629" width="0.1211" height="2.6629" ry="0.0400" fill="currentColor"/>
</g>
<a style="color:inherit;" xlink:href="textedit:///home/omk/Insync/otaviokavakama%40gmail.com/Google%20Drive/WEBSITE/kavotaman.github.io/lilypond_files/e10ef8553b6d742a01cd6d0f9d435f87.ly:22:15:16">
<g transform="translate(47.3711, 4.6970)">
<path transform="scale(0.0032, -0.0032)" d="M212 138c59 0 113 -31 113 -95c0 -71 -52 -120 -99 -148c-34 -21 -73 -33 -113 -33c-59 0 -113 31 -113 95c0 71 53 120 100 148c34 21 72 33 112 33z" fill="currentColor"/>
</g>
</a>
<g transform="translate(44.6930, 6.2970)">
<rect x="-0.0605" y="-1.0629" width="0.1211" height="2.6629" ry="0.0400" fill="currentColor"/>
</g>
<g transform="translate(55.2133, 6.2970)">
<rect x="-0.0605" y="-1.8629" width="0.1211" height="2.5206" ry="0.0400" fill="currentColor"/>
</g>
<a style="color:inherit;" xlink:href="textedit:///home/omk/Insync/otaviokavakama%40gmail.com/Google%20Drive/WEBSITE/kavotaman.github.io/lilypond_files/e10ef8553b6d742a01cd6d0f9d435f87.ly:23:4:5">
<g transform="translate(55.1527, 4.2970)">
<path transform="scale(0.0032, -0.0032)" d="M212 138c59 0 113 -31 113 -95c0 -71 -52 -120 -99 -148c-34 -21 -73 -33 -113 -33c-59 0 -113 31 -113 95c0 71 53 120 100 148c34 21 72 33 112 33z" fill="currentColor"/>
</g>
</a>
<g transform="translate(50.1704, 6.2970)">
<rect x="-0.0605" y="-1.8036" width="0.1211" height="2.6036" ry="0.0400" fill="currentColor"/>
</g>
<a style="color:inherit;" xlink:href="textedit:///home/omk/Insync/otaviokavakama%40gmail.com/Google%20Drive/WEBSITE/kavotaman.github.io/lilypond_files/e10ef8553b6d742a01cd6d0f9d435f87.ly:22:17:18">
<g transform="translate(50.1099, 4.2970)">
<path transform="scale(0.0032, -0.0032)" d="M310 63c0 23 -19 40 -40 40c-4 0 -8 -1 -12 -2c-30 -8 -75 -38 -111 -61s-81 -52 -101 -76c-7 -8 -10 -17 -10 -27c0 -23 19 -40 40 -40c4 0 8 1 12 2c30 8 75 38 111 61s81 52 101 76c7 8 10 17 10 27zM256 138c50 0 90 -22 90 -77c0 -18 -5 -37 -10 -55
c-11 -38 -30 -74 -63 -96c-53 -35 -111 -48 -183 -48c-50 0 -90 22 -90 77c0 18 5 37 10 55c11 38 30 74 63 96c53 36 111 48 183 48z" fill="currentColor"/>
</g>
</a>
<a style="color:inherit;" xlink:href="textedit:///home/omk/Insync/otaviokavakama%40gmail.com/Google%20Drive/WEBSITE/kavotaman.github.io/lilypond_files/e10ef8553b6d742a01cd6d0f9d435f87.ly:22:7:8">
<g transform="translate(36.8737, 4.6970)">
<path transform="scale(0.0032, -0.0032)" d="M212 138c59 0 113 -31 113 -95c0 -71 -52 -120 -99 -148c-34 -21 -73 -33 -113 -33c-59 0 -113 31 -113 95c0 71 53 120 100 148c34 21 72 33 112 33z" fill="currentColor"/>
</g>
</a>
<g transform="translate(36.9343, 6.2970)">
<rect x="-0.0605" y="-1.4629" width="0.1211" height="2.6629" ry="0.0400" fill="currentColor"/>
</g>
<a style="color:inherit;" xlink:href="textedit:///home/omk/Insync/otaviokavakama%40gmail.com/Google%20Drive/WEBSITE/kavotaman.github.io/lilypond_files/e10ef8553b6d742a01cd6d0f9d435f87.ly:22:9:10">
<g transform="translate(39.6124, 4.2970)">
<path transform="scale(0.0032, -0.0032)" d="M310 63c0 23 -19 40 -40 40c-4 0 -8 -1 -12 -2c-30 -8 -75 -38 -111 -61s-81 -52 -101 -76c-7 -8 -10 -17 -10 -27c0 -23 19 -40 40 -40c4 0 8 1 12 2c30 8 75 38 111 61s81 52 101 76c7 8 10 17 10 27zM256 138c50 0 90 -22 90 -77c0 -18 -5 -37 -10 -55
c-11 -38 -30 -74 -63 -96c-53 -35 -111 -48 -183 -48c-50 0 -90 22 -90 77c0 18 5 37 10 55c11 38 30 74 63 96c53 36 111 48 183 48z" fill="currentColor"/>
</g>
</a>
<g transform="translate(39.6730, 6.2970)">
<rect x="-0.0605" y="-1.8036" width="0.1211" height="2.6036" ry="0.0400" fill="currentColor"/>
</g>
<a style="color:inherit;" xlink:href="textedit:///home/omk/Insync/otaviokavakama%40gmail.com/Google%20Drive/WEBSITE/kavotaman.github.io/lilypond_files/e10ef8553b6d742a01cd6d0f9d435f87.ly:22:12:13">
<g transform="translate(44.6324, 5.0970)">
<path transform="scale(0.0032, -0.0032)" d="M212 138c59 0 113 -31 113 -95c0 -71 -52 -120 -99 -148c-34 -21 -73 -33 -113 -33c-59 0 -113 31 -113 95c0 71 53 120 100 148c34 21 72 33 112 33z" fill="currentColor"/>
</g>
</a>
</svg>
