<svg xmlns="http://www.w3.org/2000/svg" xmlns:xlink="http://www.w3.org/1999/xlink" version="1.2" width="101.60mm" height="42.90mm" viewBox="0 0 57.8160 24.4132">
<style type="text/css">
<![CDATA[
tspan { white-space: pre; }
]]>
</style>
<!-- Page: 1/1 -->
<g transform="translate(2.2762, 7.8970)">
<line stroke-linejoin="round" stroke-linecap="round" stroke-width="0.0931" stroke="currentColor" x1="0.0466" y1="0" x2="53.2170" y2="0"/>
</g>
<g transform="translate(2.2762, 7.0970)">
<line stroke-linejoin="round" stroke-linecap="round" stroke-width="0.0931" stroke="currentColor" x1="0.0466" y1="0" x2="53.2170" y2="0"/>
</g>
<g transform="translate(2.2762, 6.2970)">
<line stroke-linejoin="round" stroke-linecap="round" stroke-width="0.0931" stroke="currentColor" x1="0.0466" y1="0" x2="53.2170" y2="0"/>
</g>
<g transform="translate(2.2762, 5.4970)">
<line stroke-linejoin="round" stroke-linecap="round" stroke-width="0.0931" stroke="currentColor" x1="0.0466" y1="0" x2="53.2170" y2="0"/>
</g>
<g transform="translate(2.2762, 4.6970)">
<line stroke-linejoin="round" stroke-linecap="round" stroke-width="0.0931" stroke="currentColor" x1="0.0466" y1="0" x2="53.2170" y2="0"/>
</g>
<g transform="translate(44.5071, 6.2970)">
<rect x="0.0000" y="-1.6000" width="0.1770" height="3.2000" ry="0.0000" fill="currentColor"/>
</g>
<g transform="translate(21.5219, 6.2970)">
<rect x="0.0000" y="-1.6000" width="0.1770" height="3.2000" ry="0.0000" fill="currentColor"/>
</g>
<g transform="translate(33.6514, 6.2970)">
<rect x="0.0000" y="-1.6000" width="0.1770" height="3.2000" ry="0.0000" fill="currentColor"/>
</g>
<g transform="translate(55.3628, 6.2970)">
<rect x="0.0000" y="-1.6000" width="0.1770" height="3.2000" ry="0.0000" fill="currentColor"/>
</g>
<a style="color:inherit;" xlink:href="textedit:///home/omk/Insync/otaviokavakama%40gmail.com/Google%20Drive/WEBSITE/kavotaman.github.io/lilypond_files/fcf5de3d1b7e3729f701ea41da6b1b71.ly:25:12:13">
<g transform="translate(45.7602, 5.0970)">
<path transform="scale(0.0032, -0.0032)" d="M212 138c59 0 113 -31 113 -95c0 -71 -52 -120 -99 -148c-34 -21 -73 -33 -113 -33c-59 0 -113 31 -113 95c0 71 53 120 100 148c34 21 72 33 112 33z" fill="currentColor"/>
</g>
</a>
<a style="color:inherit;" xlink:href="textedit:///home/omk/Insync/otaviokavakama%40gmail.com/Google%20Drive/WEBSITE/kavotaman.github.io/lilypond_files/fcf5de3d1b7e3729f701ea41da6b1b71.ly:25:7:8">
<g transform="translate(37.7334, 4.6970)">
<path transform="scale(0.0032, -0.0032)" d="M212 138c59 0 113 -31 113 -95c0 -71 -52 -120 -99 -148c-34 -21 -73 -33 -113 -33c-59 0 -113 31 -113 95c0 71 53 120 100 148c34 21 72 33 112 33z" fill="currentColor"/>
</g>
</a>
<g transform="translate(37.7939, 6.2970)">
<rect x="-0.0605" y="-1.4629" width="0.1211" height="2.6629" ry="0.0400" fill="currentColor"/>
</g>
<a style="color:inherit;" xlink:href="textedit:///home/omk/Insync/otaviokavakama%40gmail.com/Google%20Drive/WEBSITE/kavotaman.github.io/lilypond_files/fcf5de3d1b7e3729f701ea41da6b1b71.ly:25:9:10">
<g transform="translate(40.5623, 4.2970)">
<path transform="scale(0.0032, -0.0032)" d="M310 63c0 23 -19 40 -40 40c-4 0 -8 -1 -12 -2c-30 -8 -75 -38 -111 -61s-81 -52 -101 -76c-7 -8 -10 -17 -10 -27c0 -23 19 -40 40 -40c4 0 8 1 12 2c30 8 75 38 111 61s81 52 101 76c7 8 10 17 10 27zM256 138c50 0 90 -22 90 -77c0 -18 -5 -37 -10 -55
c-11 -38 -30 -74 -63 -96c-53 -35 -111 -48 -183 -48c-50 0 -90 22 -90 77c0 18 5 37 10 55c11 38 30 74 63 96c53 36 111 48 183 48z" fill="currentColor"/>
</g>
</a>
<g transform="translate(40.6228, 6.2970)">
<rect x="-0.0605" y="-1.8036" width="0.1211" height="2.6036" ry="0.0400" fill="currentColor"/>
</g>
<g transform="translate(31.0494, 6.2970)">
<rect x="-0.0605" y="-0.2629" width="0.1211" height="2.6629" ry="0.0400" fill="currentColor"/>
</g>
<g transform="translate(34.9650, 6.2970)">
<rect x="-0.0605" y="-1.0629" width="0.1211" height="2.6629" ry="0.0400" fill="currentColor"/>
</g>
<a style="color:inherit;" xlink:href="textedit:///home/omk/Insync/otaviokavakama%40gmail.com/Google%20Drive/WEBSITE/kavotaman.github.io/lilypond_files/fcf5de3d1b7e3729f701ea41da6b1b71.ly:25:4:5">
<g transform="translate(34.9045, 5.0970)">
<path transform="scale(0.0032, -0.0032)" d="M212 138c59 0 113 -31 113 -95c0 -71 -52 -120 -99 -148c-34 -21 -73 -33 -113 -33c-59 0 -113 31 -113 95c0 71 53 120 100 148c34 21 72 33 112 33z" fill="currentColor"/>
</g>
</a>
<a style="color:inherit;" xlink:href="textedit:///home/omk/Insync/otaviokavakama%40gmail.com/Google%20Drive/WEBSITE/kavotaman.github.io/lilypond_files/fcf5de3d1b7e3729f701ea41da6b1b71.ly:25:17:18">
<g transform="translate(51.4180, 4.2970)">
<path transform="scale(0.0032, -0.0032)" d="M310 63c0 23 -19 40 -40 40c-4 0 -8 -1 -12 -2c-30 -8 -75 -38 -111 -61s-81 -52 -101 -76c-7 -8 -10 -17 -10 -27c0 -23 19 -40 40 -40c4 0 8 1 12 2c30 8 75 38 111 61s81 52 101 76c7 8 10 17 10 27zM256 138c50 0 90 -22 90 -77c0 -18 -5 -37 -10 -55
c-11 -38 -30 -74 -63 -96c-53 -35 -111 -48 -183 -48c-50 0 -90 22 -90 77c0 18 5 37 10 55c11 38 30 74 63 96c53 36 111 48 183 48z" fill="currentColor"/>
</g>
</a>
<g transform="translate(51.4785, 6.2970)">
<rect x="-0.0605" y="-1.8036" width="0.1211" height="2.6036" ry="0.0400" fill="currentColor"/>
</g>
<g transform="translate(48.6496, 6.2970)">
<rect x="-0.0605" y="-1.4629" width="0.1211" height="2.6629" ry="0.0400" fill="currentColor"/>
</g>
<a style="color:inherit;" xlink:href="textedit:///home/omk/Insync/otaviokavakama%40gmail.com/Google%20Drive/WEBSITE/kavotaman.github.io/lilypond_files/fcf5de3d1b7e3729f701ea41da6b1b71.ly:25:15:16">
<g transform="translate(48.5891, 4.6970)">
<path transform="scale(0.0032, -0.0032)" d="M212 138c59 0 113 -31 113 -95c0 -71 -52 -120 -99 -148c-34 -21 -73 -33 -113 -33c-59 0 -113 31 -113 95c0 71 53 120 100 148c34 21 72 33 112 33z" fill="currentColor"/>
</g>
</a>
<g transform="translate(45.8207, 6.2970)">
<rect x="-0.0605" y="-1.0629" width="0.1211" height="2.6629" ry="0.0400" fill="currentColor"/>
</g>
<a style="color:inherit;" xlink:href="textedit:///home/omk/Insync/otaviokavakama%40gmail.com/Google%20Drive/WEBSITE/kavotaman.github.io/lilypond_files/fcf5de3d1b7e3729f701ea41da6b1b71.ly:24:7:8">
<g transform="translate(13.4515, 5.4970)">
<path transform="scale(0.0032, -0.0032)" d="M212 138c59 0 113 -31 113 -95c0 -71 -52 -120 -99 -148c-34 -21 -73 -33 -113 -33c-59 0 -113 31 -113 95c0 71 53 120 100 148c34 21 72 33 112 33z" fill="currentColor"/>
</g>
</a>
<g transform="translate(13.5120, 6.2970)">
<rect x="-0.0605" y="-0.6629" width="0.1211" height="2.6629" ry="0.0400" fill="currentColor"/>
</g>
<a style="color:inherit;" xlink:href="textedit:///home/omk/Insync/otaviokavakama%40gmail.com/Google%20Drive/WEBSITE/kavotaman.github.io/lilypond_files/fcf5de3d1b7e3729f701ea41da6b1b71.ly:24:9:10">
<g transform="translate(16.2804, 5.0970)">
<path transform="scale(0.0032, -0.0032)" d="M212 138c59 0 113 -31 113 -95c0 -71 -52 -120 -99 -148c-34 -21 -73 -33 -113 -33c-59 0 -113 31 -113 95c0 71 53 120 100 148c34 21 72 33 112 33z" fill="currentColor"/>
</g>
</a>
<g transform="translate(16.3409, 6.2970)">
<rect x="-0.0605" y="-1.0629" width="0.1211" height="2.6629" ry="0.0400" fill="currentColor"/>
</g>
<a style="color:inherit;" xlink:href="textedit:///home/omk/Insync/otaviokavakama%40gmail.com/Google%20Drive/WEBSITE/kavotaman.github.io/lilypond_files/fcf5de3d1b7e3729f701ea41da6b1b71.ly:24:11:12">
<g transform="translate(18.8593, 5.8970)">
<path transform="scale(0.0032, -0.0032)" d="M212 138c59 0 113 -31 113 -95c0 -71 -52 -120 -99 -148c-34 -21 -73 -33 -113 -33c-59 0 -113 31 -113 95c0 71 53 120 100 148c34 21 72 33 112 33z" fill="currentColor"/>
</g>
</a>
<g transform="translate(18.9198, 6.2970)">
<rect x="-0.0605" y="-0.2629" width="0.1211" height="2.6629" ry="0.0400" fill="currentColor"/>
</g>
<a style="color:inherit;" xlink:href="textedit:///home/omk/Insync/otaviokavakama%40gmail.com/Google%20Drive/WEBSITE/kavotaman.github.io/lilypond_files/fcf5de3d1b7e3729f701ea41da6b1b71.ly:24:19:20">
<g transform="translate(30.9888, 5.8970)">
<path transform="scale(0.0032, -0.0032)" d="M212 138c59 0 113 -31 113 -95c0 -71 -52 -120 -99 -148c-34 -21 -73 -33 -113 -33c-59 0 -113 31 -113 95c0 71 53 120 100 148c34 21 72 33 112 33z" fill="currentColor"/>
</g>
</a>
<g transform="translate(10.6831, 6.2970)">
<rect x="-0.0605" y="-0.2629" width="0.1211" height="2.6629" ry="0.0400" fill="currentColor"/>
</g>
<g transform="translate(7.2762, 6.2970)">
<path transform="scale(0.0032, -0.0032)" d="M356 30c-48 0 -72 40 -72 72c0 37 26 75 70 75c3 0 6 -1 9 -1c-26 36 -67 59 -113 59c-107 0 -113 -74 -113 -189c0 -15 1 -30 1 -46s-1 -31 -1 -46c0 -115 6 -189 113 -189c78 0 133 70 151 149c2 8 8 11 14 11c7 0 15 -5 15 -14c0 -95 -103 -176 -180 -176
c-68 0 -137 20 -184 70c-49 52 -66 124 -66 195s17 143 66 195c47 50 116 70 184 70c86 0 156 -67 171 -153c1 -4 1 -9 1 -13c0 -38 -30 -69 -66 -69z" fill="currentColor"/>
</g>
<g transform="translate(3.0762, 7.0970)">
<path transform="scale(0.0032, -0.0032)" d="M379 264c3 0 7 1 10 1c157 0 258 -129 258 -263c0 -77 -33 -155 -108 -211c-22 -16 -46 -29 -72 -37c3 -33 4 -66 4 -99c0 -21 0 -41 -1 -62c-7 -121 -91 -229 -211 -229c-108 0 -196 88 -196 197c0 58 54 103 113 103c54 0 95 -47 95 -103c0 -52 -43 -95 -95 -95
c-9 0 -18 1 -27 4c25 -37 66 -61 113 -61c95 0 156 93 162 191c1 19 2 38 2 57c0 29 -1 58 -3 87c-29 -5 -58 -8 -88 -8c-189 0 -333 173 -333 376c0 177 129 308 244 443c-20 62 -40 124 -48 189c-7 52 -7 105 -7 158c0 114 54 221 147 288c8 6 18 5 25 -1
c72 -83 135 -243 135 -356c0 -142 -84 -255 -176 -364c21 -68 40 -136 57 -205zM463 -201c65 24 110 94 110 161c0 88 -64 175 -167 188c24 -114 44 -227 57 -349zM77 25c0 -133 128 -243 261 -243c27 0 55 1 81 5c-13 126 -35 244 -60 362c-79 -8 -124 -60 -124 -118
c0 -43 25 -88 80 -120c5 -5 7 -11 7 -17c0 -12 -10 -23 -23 -23c-3 0 -7 1 -10 2c-81 43 -118 115 -118 186c0 89 60 177 163 200c-14 57 -30 113 -47 169c-105 -122 -210 -243 -210 -403zM242 784c0 -71 21 -130 39 -188c78 97 142 199 142 324c0 51 -4 72 -20 118
c-99 -46 -161 -145 -161 -254z" fill="currentColor"/>
</g>
<a style="color:inherit;" xlink:href="textedit:///home/omk/Insync/otaviokavakama%40gmail.com/Google%20Drive/WEBSITE/kavotaman.github.io/lilypond_files/fcf5de3d1b7e3729f701ea41da6b1b71.ly:24:4:5">
<g transform="translate(10.6225, 5.8970)">
<path transform="scale(0.0032, -0.0032)" d="M212 138c59 0 113 -31 113 -95c0 -71 -52 -120 -99 -148c-34 -21 -73 -33 -113 -33c-59 0 -113 31 -113 95c0 71 53 120 100 148c34 21 72 33 112 33z" fill="currentColor"/>
</g>
</a>
<g transform="translate(25.6415, 6.2970)">
<rect x="-0.0605" y="-0.6629" width="0.1211" height="2.6629" ry="0.0400" fill="currentColor"/>
</g>
<a style="color:inherit;" xlink:href="textedit:///home/omk/Insync/otaviokavakama%40gmail.com/Google%20Drive/WEBSITE/kavotaman.github.io/lilypond_files/fcf5de3d1b7e3729f701ea41da6b1b71.ly:24:15:16">
<g transform="translate(25.5810, 5.4970)">
<path transform="scale(0.0032, -0.0032)" d="M212 138c59 0 113 -31 113 -95c0 -71 -52 -120 -99 -148c-34 -21 -73 -33 -113 -33c-59 0 -113 31 -113 95c0 71 53 120 100 148c34 21 72 33 112 33z" fill="currentColor"/>
</g>
</a>
<a style="color:inherit;" xlink:href="textedit:///home/omk/Insync/otaviokavakama%40gmail.com/Google%20Drive/WEBSITE/kavotaman.github.io/lilypond_files/fcf5de3d1b7e3729f701ea41da6b1b71.ly:24:17:18">
<g transform="translate(28.4099, 5.0970)">
<path transform="scale(0.0032, -0.0032)" d="M212 138c59 0 113 -31 113 -95c0 -71 -52 -120 -99 -148c-34 -21 -73 -33 -113 -33c-59 0 -113 31 -113 95c0 71 53 120 100 148c34 21 72 33 112 33z" fill="currentColor"/>
</g>
</a>
<g transform="translate(28.4705, 6.2970)">
<rect x="-0.0605" y="-1.0629" width="0.1211" height="2.6629" ry="0.0400" fill="currentColor"/>
</g>
<a style="color:inherit;" xlink:href="textedit:///home/omk/Insync/otaviokavakama%40gmail.com/Google%20Drive/WEBSITE/kavotaman.github.io/lilypond_files/fcf5de3d1b7e3729f701ea41da6b1b71.ly:24:13:14">
<g transform="translate(22.7521, 5.8970)">
<path transform="scale(0.0032, -0.0032)" d="M212 138c59 0 113 -31 113 -95c0 -71 -52 -120 -99 -148c-34 -21 -73 -33 -113 -33c-59 0 -113 31 -113 95c0 71 53 120 100 148c34 21 72 33 112 33z" fill="currentColor"/>
</g>
</a>
<g transform="translate(22.8126, 6.2970)">
<rect x="-0.0605" y="-0.2629" width="0.1211" height="2.6629" ry="0.0400" fill="currentColor"/>
</g>
<g transform="translate(2.2762, 19.8970)">
<line stroke-linejoin="round" stroke-linecap="round" stroke-width="0.0931" stroke="currentColor" x1="0.0466" y1="0" x2="53.2170" y2="0"/>
</g>
<g transform="translate(2.2762, 19.0970)">
<line stroke-linejoin="round" stroke-linecap="round" stroke-width="0.0931" stroke="currentColor" x1="0.0466" y1="0" x2="53.2170" y2="0"/>
</g>
<g transform="translate(2.2762, 18.2970)">
<line stroke-linejoin="round" stroke-linecap="round" stroke-width="0.0931" stroke="currentColor" x1="0.0466" y1="0" x2="53.2170" y2="0"/>
</g>
<g transform="translate(2.2762, 17.4970)">
<line stroke-linejoin="round" stroke-linecap="round" stroke-width="0.0931" stroke="currentColor" x1="0.0466" y1="0" x2="53.2170" y2="0"/>
</g>
<g transform="translate(2.2762, 16.6970)">
<line stroke-linejoin="round" stroke-linecap="round" stroke-width="0.0931" stroke="currentColor" x1="0.0466" y1="0" x2="53.2170" y2="0"/>
</g>
<g transform="translate(44.8077, 18.2970)">
<rect x="0.0000" y="-1.6000" width="0.1770" height="3.2000" ry="0.0000" fill="currentColor"/>
</g>
<g transform="translate(34.2525, 18.2970)">
<rect x="0.0000" y="-1.6000" width="0.1770" height="3.2000" ry="0.0000" fill="currentColor"/>
</g>
<g transform="translate(20.5371, 18.2970)">
<rect x="0.0000" y="-1.6000" width="0.1770" height="3.2000" ry="0.0000" fill="currentColor"/>
</g>
<g transform="translate(55.3628, 18.2970)">
<rect x="0.0000" y="-1.6000" width="0.1770" height="3.2000" ry="0.0000" fill="currentColor"/>
</g>
<g transform="translate(2.2762, 15.8970)">
<rect x="21.1004" y="-0.0866" width="1.5610" height="0.1731" ry="0.0866" fill="currentColor"/>
</g>
<g transform="translate(2.2762, 15.8970)">
<rect x="7.3850" y="-0.0866" width="1.5610" height="0.1731" ry="0.0866" fill="currentColor"/>
</g>
<g transform="translate(35.5219, 18.2970)">
<rect x="-0.0605" y="-0.2629" width="0.1211" height="2.6629" ry="0.0400" fill="currentColor"/>
</g>
<a style="color:inherit;" xlink:href="textedit:///home/omk/Insync/otaviokavakama%40gmail.com/Google%20Drive/WEBSITE/kavotaman.github.io/lilypond_files/fcf5de3d1b7e3729f701ea41da6b1b71.ly:27:7:8">
<g transform="translate(38.0442, 19.0970)">
<path transform="scale(0.0032, -0.0032)" d="M212 138c59 0 113 -31 113 -95c0 -71 -52 -120 -99 -148c-34 -21 -73 -33 -113 -33c-59 0 -113 31 -113 95c0 71 53 120 100 148c34 21 72 33 112 33z" fill="currentColor"/>
</g>
</a>
<g transform="translate(39.0244, 18.2970)">
<rect x="-0.0605" y="-2.0000" width="0.1211" height="2.6629" ry="0.0400" fill="currentColor"/>
</g>
<a style="color:inherit;" xlink:href="textedit:///home/omk/Insync/otaviokavakama%40gmail.com/Google%20Drive/WEBSITE/kavotaman.github.io/lilypond_files/fcf5de3d1b7e3729f701ea41da6b1b71.ly:26:26:27">
<g transform="translate(27.3271, 16.6970)">
<path transform="scale(0.0032, -0.0032)" d="M212 138c59 0 113 -31 113 -95c0 -71 -52 -120 -99 -148c-34 -21 -73 -33 -113 -33c-59 0 -113 31 -113 95c0 71 53 120 100 148c34 21 72 33 112 33z" fill="currentColor"/>
</g>
</a>
<g transform="translate(27.3877, 18.2970)">
<rect x="-0.0605" y="-1.4629" width="0.1211" height="2.4052" ry="0.0400" fill="currentColor"/>
</g>
<a style="color:inherit;" xlink:href="textedit:///home/omk/Insync/otaviokavakama%40gmail.com/Google%20Drive/WEBSITE/kavotaman.github.io/lilypond_files/fcf5de3d1b7e3729f701ea41da6b1b71.ly:26:28:29">
<g transform="translate(29.1723, 17.0970)">
<path transform="scale(0.0032, -0.0032)" d="M212 138c59 0 113 -31 113 -95c0 -71 -52 -120 -99 -148c-34 -21 -73 -33 -113 -33c-59 0 -113 31 -113 95c0 71 53 120 100 148c34 21 72 33 112 33z" fill="currentColor"/>
</g>
</a>
<g transform="translate(29.2328, 18.2970)">
<rect x="-0.0605" y="-1.0629" width="0.1211" height="2.6629" ry="0.0400" fill="currentColor"/>
</g>
<a style="color:inherit;" xlink:href="textedit:///home/omk/Insync/otaviokavakama%40gmail.com/Google%20Drive/WEBSITE/kavotaman.github.io/lilypond_files/fcf5de3d1b7e3729f701ea41da6b1b71.ly:26:31:32">
<g transform="translate(31.6706, 17.8970)">
<path transform="scale(0.0032, -0.0032)" d="M212 138c59 0 113 -31 113 -95c0 -71 -52 -120 -99 -148c-34 -21 -73 -33 -113 -33c-59 0 -113 31 -113 95c0 71 53 120 100 148c34 21 72 33 112 33z" fill="currentColor"/>
</g>
</a>
<g transform="translate(31.7311, 18.2970)">
<rect x="-0.0605" y="-0.2629" width="0.1211" height="2.6629" ry="0.0400" fill="currentColor"/>
</g>
<g transform="translate(8.0762, 18.9516)">
<polygon stroke-linejoin="round" stroke-linecap="round" stroke-width="0.0800" fill="currentColor" stroke="currentColor" points="5.6166 0.1389 5.6166 0.4429 0.0400 0.1520 0.0400 -0.1520"/>
</g>
<a style="color:inherit;" xlink:href="textedit:///home/omk/Insync/otaviokavakama%40gmail.com/Google%20Drive/WEBSITE/kavotaman.github.io/lilypond_files/fcf5de3d1b7e3729f701ea41da6b1b71.ly:27:4:5">
<g transform="translate(35.4613, 17.8970)">
<path transform="scale(0.0032, -0.0032)" d="M212 138c59 0 113 -31 113 -95c0 -71 -52 -120 -99 -148c-34 -21 -73 -33 -113 -33c-59 0 -113 31 -113 95c0 71 53 120 100 148c34 21 72 33 112 33z" fill="currentColor"/>
</g>
</a>
<g transform="translate(49.5795, 18.2970)">
<rect x="-0.0605" y="-2.0000" width="0.1211" height="2.6629" ry="0.0400" fill="currentColor"/>
</g>
<a style="color:inherit;" xlink:href="textedit:///home/omk/Insync/otaviokavakama%40gmail.com/Google%20Drive/WEBSITE/kavotaman.github.io/lilypond_files/fcf5de3d1b7e3729f701ea41da6b1b71.ly:27:17:18">
<g transform="translate(51.5024, 17.8970)">
<path transform="scale(0.0032, -0.0032)" d="M310 63c0 23 -19 40 -40 40c-4 0 -8 -1 -12 -2c-30 -8 -75 -38 -111 -61s-81 -52 -101 -76c-7 -8 -10 -17 -10 -27c0 -23 19 -40 40 -40c4 0 8 1 12 2c30 8 75 38 111 61s81 52 101 76c7 8 10 17 10 27zM256 138c50 0 90 -22 90 -77c0 -18 -5 -37 -10 -55
c-11 -38 -30 -74 -63 -96c-53 -35 -111 -48 -183 -48c-50 0 -90 22 -90 77c0 18 5 37 10 55c11 38 30 74 63 96c53 36 111 48 183 48z" fill="currentColor"/>
</g>
</a>
<g transform="translate(51.5629, 18.2970)">
<rect x="-0.0605" y="-0.2036" width="0.1211" height="2.6036" ry="0.0400" fill="currentColor"/>
</g>
<a style="color:inherit;" xlink:href="textedit:///home/omk/Insync/otaviokavakama%40gmail.com/Google%20Drive/WEBSITE/kavotaman.github.io/lilypond_files/fcf5de3d1b7e3729f701ea41da6b1b71.ly:27:15:16">
<g transform="translate(48.5994, 19.0970)">
<path transform="scale(0.0032, -0.0032)" d="M212 138c59 0 113 -31 113 -95c0 -71 -52 -120 -99 -148c-34 -21 -73 -33 -113 -33c-59 0 -113 31 -113 95c0 71 53 120 100 148c34 21 72 33 112 33z" fill="currentColor"/>
</g>
</a>
<g transform="translate(21.7916, 18.9516)">
<polygon stroke-linejoin="round" stroke-linecap="round" stroke-width="0.0800" fill="currentColor" stroke="currentColor" points="5.6166 0.1389 5.6166 0.4429 0.0400 0.1520 0.0400 -0.1520"/>
</g>
<g transform="translate(41.0078, 18.2970)">
<rect x="-0.0605" y="-0.2036" width="0.1211" height="2.6036" ry="0.0400" fill="currentColor"/>
</g>
<a style="color:inherit;" xlink:href="textedit:///home/omk/Insync/otaviokavakama%40gmail.com/Google%20Drive/WEBSITE/kavotaman.github.io/lilypond_files/fcf5de3d1b7e3729f701ea41da6b1b71.ly:27:12:13">
<g transform="translate(46.0165, 17.8970)">
<path transform="scale(0.0032, -0.0032)" d="M212 138c59 0 113 -31 113 -95c0 -71 -52 -120 -99 -148c-34 -21 -73 -33 -113 -33c-59 0 -113 31 -113 95c0 71 53 120 100 148c34 21 72 33 112 33z" fill="currentColor"/>
</g>
</a>
<g transform="translate(46.0770, 18.2970)">
<rect x="-0.0605" y="-0.2629" width="0.1211" height="2.6629" ry="0.0400" fill="currentColor"/>
</g>
<a style="color:inherit;" xlink:href="textedit:///home/omk/Insync/otaviokavakama%40gmail.com/Google%20Drive/WEBSITE/kavotaman.github.io/lilypond_files/fcf5de3d1b7e3729f701ea41da6b1b71.ly:27:9:10">
<g transform="translate(40.9472, 17.8970)">
<path transform="scale(0.0032, -0.0032)" d="M310 63c0 23 -19 40 -40 40c-4 0 -8 -1 -12 -2c-30 -8 -75 -38 -111 -61s-81 -52 -101 -76c-7 -8 -10 -17 -10 -27c0 -23 19 -40 40 -40c4 0 8 1 12 2c30 8 75 38 111 61s81 52 101 76c7 8 10 17 10 27zM256 138c50 0 90 -22 90 -77c0 -18 -5 -37 -10 -55
c-11 -38 -30 -74 -63 -96c-53 -35 -111 -48 -183 -48c-50 0 -90 22 -90 77c0 18 5 37 10 55c11 38 30 74 63 96c53 36 111 48 183 48z" fill="currentColor"/>
</g>
</a>
<a style="color:inherit;" xlink:href="textedit:///home/omk/Insync/otaviokavakama%40gmail.com/Google%20Drive/WEBSITE/kavotaman.github.io/lilypond_files/fcf5de3d1b7e3729f701ea41da6b1b71.ly:26:7:8">
<g transform="translate(9.9214, 15.8970)">
<path transform="scale(0.0032, -0.0032)" d="M212 138c59 0 113 -31 113 -95c0 -71 -52 -120 -99 -148c-34 -21 -73 -33 -113 -33c-59 0 -113 31 -113 95c0 71 53 120 100 148c34 21 72 33 112 33z" fill="currentColor"/>
</g>
</a>
<g transform="translate(9.9819, 18.2970)">
<rect x="-0.0605" y="-2.2629" width="0.1211" height="3.0155" ry="0.0400" fill="currentColor"/>
</g>
<a style="color:inherit;" xlink:href="textedit:///home/omk/Insync/otaviokavakama%40gmail.com/Google%20Drive/WEBSITE/kavotaman.github.io/lilypond_files/fcf5de3d1b7e3729f701ea41da6b1b71.ly:26:9:10">
<g transform="translate(11.7666, 16.2970)">
<path transform="scale(0.0032, -0.0032)" d="M212 138c59 0 113 -31 113 -95c0 -71 -52 -120 -99 -148c-34 -21 -73 -33 -113 -33c-59 0 -113 31 -113 95c0 71 53 120 100 148c34 21 72 33 112 33z" fill="currentColor"/>
</g>
</a>
<g transform="translate(11.8271, 18.2970)">
<rect x="-0.0605" y="-1.8629" width="0.1211" height="2.7104" ry="0.0400" fill="currentColor"/>
</g>
<a style="color:inherit;" xlink:href="textedit:///home/omk/Insync/otaviokavakama%40gmail.com/Google%20Drive/WEBSITE/kavotaman.github.io/lilypond_files/fcf5de3d1b7e3729f701ea41da6b1b71.ly:26:11:12">
<g transform="translate(13.6117, 16.6970)">
<path transform="scale(0.0032, -0.0032)" d="M212 138c59 0 113 -31 113 -95c0 -71 -52 -120 -99 -148c-34 -21 -73 -33 -113 -33c-59 0 -113 31 -113 95c0 71 53 120 100 148c34 21 72 33 112 33z" fill="currentColor"/>
</g>
</a>
<g transform="translate(13.6723, 18.2970)">
<rect x="-0.0605" y="-1.4629" width="0.1211" height="2.4052" ry="0.0400" fill="currentColor"/>
</g>
<a style="color:inherit;" xlink:href="textedit:///home/omk/Insync/otaviokavakama%40gmail.com/Google%20Drive/WEBSITE/kavotaman.github.io/lilypond_files/fcf5de3d1b7e3729f701ea41da6b1b71.ly:26:13:14">
<g transform="translate(15.4569, 17.0970)">
<path transform="scale(0.0032, -0.0032)" d="M212 138c59 0 113 -31 113 -95c0 -71 -52 -120 -99 -148c-34 -21 -73 -33 -113 -33c-59 0 -113 31 -113 95c0 71 53 120 100 148c34 21 72 33 112 33z" fill="currentColor"/>
</g>
</a>
<g transform="translate(15.5174, 18.2970)">
<rect x="-0.0605" y="-1.0629" width="0.1211" height="2.6629" ry="0.0400" fill="currentColor"/>
</g>
<g transform="translate(1.5934, 15.6309)">
<text font-family="serif" font-size="1.3971" text-anchor="start" fill="currentColor">
<tspan>5</tspan>
</text>
</g>
<g transform="translate(3.0762, 19.0970)">
<path transform="scale(0.0032, -0.0032)" d="M379 264c3 0 7 1 10 1c157 0 258 -129 258 -263c0 -77 -33 -155 -108 -211c-22 -16 -46 -29 -72 -37c3 -33 4 -66 4 -99c0 -21 0 -41 -1 -62c-7 -121 -91 -229 -211 -229c-108 0 -196 88 -196 197c0 58 54 103 113 103c54 0 95 -47 95 -103c0 -52 -43 -95 -95 -95
c-9 0 -18 1 -27 4c25 -37 66 -61 113 -61c95 0 156 93 162 191c1 19 2 38 2 57c0 29 -1 58 -3 87c-29 -5 -58 -8 -88 -8c-189 0 -333 173 -333 376c0 177 129 308 244 443c-20 62 -40 124 -48 189c-7 52 -7 105 -7 158c0 114 54 221 147 288c8 6 18 5 25 -1
c72 -83 135 -243 135 -356c0 -142 -84 -255 -176 -364c21 -68 40 -136 57 -205zM463 -201c65 24 110 94 110 161c0 88 -64 175 -167 188c24 -114 44 -227 57 -349zM77 25c0 -133 128 -243 261 -243c27 0 55 1 81 5c-13 126 -35 244 -60 362c-79 -8 -124 -60 -124 -118
c0 -43 25 -88 80 -120c5 -5 7 -11 7 -17c0 -12 -10 -23 -23 -23c-3 0 -7 1 -10 2c-81 43 -118 115 -118 186c0 89 60 177 163 200c-14 57 -30 113 -47 169c-105 -122 -210 -243 -210 -403zM242 784c0 -71 21 -130 39 -188c78 97 142 199 142 324c0 51 -4 72 -20 118
c-99 -46 -161 -145 -161 -254z" fill="currentColor"/>
</g>
<a style="color:inherit;" xlink:href="textedit:///home/omk/Insync/otaviokavakama%40gmail.com/Google%20Drive/WEBSITE/kavotaman.github.io/lilypond_files/fcf5de3d1b7e3729f701ea41da6b1b71.ly:26:4:5">
<g transform="translate(8.0762, 16.2970)">
<path transform="scale(0.0032, -0.0032)" d="M212 138c59 0 113 -31 113 -95c0 -71 -52 -120 -99 -148c-34 -21 -73 -33 -113 -33c-59 0 -113 31 -113 95c0 71 53 120 100 148c34 21 72 33 112 33z" fill="currentColor"/>
</g>
</a>
<g transform="translate(8.1368, 18.2970)">
<rect x="-0.0605" y="-1.8629" width="0.1211" height="2.5206" ry="0.0400" fill="currentColor"/>
</g>
<g transform="translate(21.8522, 18.2970)">
<rect x="-0.0605" y="-1.8629" width="0.1211" height="2.5206" ry="0.0400" fill="currentColor"/>
</g>
<g transform="translate(23.6973, 18.2970)">
<rect x="-0.0605" y="-2.2629" width="0.1211" height="3.0155" ry="0.0400" fill="currentColor"/>
</g>
<a style="color:inherit;" xlink:href="textedit:///home/omk/Insync/otaviokavakama%40gmail.com/Google%20Drive/WEBSITE/kavotaman.github.io/lilypond_files/fcf5de3d1b7e3729f701ea41da6b1b71.ly:26:22:23">
<g transform="translate(23.6368, 15.8970)">
<path transform="scale(0.0032, -0.0032)" d="M212 138c59 0 113 -31 113 -95c0 -71 -52 -120 -99 -148c-34 -21 -73 -33 -113 -33c-59 0 -113 31 -113 95c0 71 53 120 100 148c34 21 72 33 112 33z" fill="currentColor"/>
</g>
</a>
<g transform="translate(25.5425, 18.2970)">
<rect x="-0.0605" y="-1.8629" width="0.1211" height="2.7104" ry="0.0400" fill="currentColor"/>
</g>
<a style="color:inherit;" xlink:href="textedit:///home/omk/Insync/otaviokavakama%40gmail.com/Google%20Drive/WEBSITE/kavotaman.github.io/lilypond_files/fcf5de3d1b7e3729f701ea41da6b1b71.ly:26:24:25">
<g transform="translate(25.4820, 16.2970)">
<path transform="scale(0.0032, -0.0032)" d="M212 138c59 0 113 -31 113 -95c0 -71 -52 -120 -99 -148c-34 -21 -73 -33 -113 -33c-59 0 -113 31 -113 95c0 71 53 120 100 148c34 21 72 33 112 33z" fill="currentColor"/>
</g>
</a>
<a style="color:inherit;" xlink:href="textedit:///home/omk/Insync/otaviokavakama%40gmail.com/Google%20Drive/WEBSITE/kavotaman.github.io/lilypond_files/fcf5de3d1b7e3729f701ea41da6b1b71.ly:26:16:17">
<g transform="translate(17.9552, 17.8970)">
<path transform="scale(0.0032, -0.0032)" d="M212 138c59 0 113 -31 113 -95c0 -71 -52 -120 -99 -148c-34 -21 -73 -33 -113 -33c-59 0 -113 31 -113 95c0 71 53 120 100 148c34 21 72 33 112 33z" fill="currentColor"/>
</g>
</a>
<g transform="translate(18.0157, 18.2970)">
<rect x="-0.0605" y="-0.2629" width="0.1211" height="2.6629" ry="0.0400" fill="currentColor"/>
</g>
<a style="color:inherit;" xlink:href="textedit:///home/omk/Insync/otaviokavakama%40gmail.com/Google%20Drive/WEBSITE/kavotaman.github.io/lilypond_files/fcf5de3d1b7e3729f701ea41da6b1b71.ly:26:18:19">
<g transform="translate(21.7916, 16.2970)">
<path transform="scale(0.0032, -0.0032)" d="M212 138c59 0 113 -31 113 -95c0 -71 -52 -120 -99 -148c-34 -21 -73 -33 -113 -33c-59 0 -113 31 -113 95c0 71 53 120 100 148c34 21 72 33 112 33z" fill="currentColor"/>
</g>
</a>
</svg>
